<?xml version="1.0" encoding="utf-8"?><svg viewBox="0 0 276 276" xmlns="http://www.w3.org/2000/svg" xmlns:xlink="http://www.w3.org/1999/xlink"><style>:root>svg{display:none}:root>svg:target{display:block}</style><svg fill="none" viewBox="0 0 32 32" id="ArrowLeft" xmlns="http://www.w3.org/2000/svg"><path fill="#fff" fill-rule="evenodd" d="M4 16a1 1 0 0 1 1-1h22a1 1 0 1 1 0 2H5a1 1 0 0 1-1-1Z" clip-rule="evenodd"/><path fill="#fff" fill-rule="evenodd" d="M14.707 6.293a1 1 0 0 1 0 1.414L6.414 16l8.293 8.293a1 1 0 0 1-1.414 1.414l-9-9a1 1 0 0 1 0-1.414l9-9a1 1 0 0 1 1.414 0Z" clip-rule="evenodd"/></svg><svg viewBox="0 0 32 32" id="ArrowRight" xmlns="http://www.w3.org/2000/svg"><path fill-rule="evenodd" d="M4 16a1 1 0 0 1 1-1h22a1 1 0 1 1 0 2H5a1 1 0 0 1-1-1Z" clip-rule="evenodd"/><path fill-rule="evenodd" d="M17.293 6.293a1 1 0 0 1 1.414 0l9 9a1 1 0 0 1 0 1.414l-9 9a1 1 0 0 1-1.414-1.414L25.586 16l-8.293-8.293a1 1 0 0 1 0-1.414Z" clip-rule="evenodd"/></svg><svg fill="none" viewBox="0 0 100 100" id="Basketball" xmlns="http://www.w3.org/2000/svg"><path stroke="#fff" stroke-linecap="round" stroke-linejoin="round" stroke-width="3" d="M50 87.5c20.71 0 37.5-16.79 37.5-37.5S70.71 12.5 50 12.5 12.5 29.29 12.5 50 29.29 87.5 50 87.5Z"/><path stroke="#fff" stroke-linecap="round" stroke-linejoin="round" stroke-width="3" d="M23.438 23.517A37.46 37.46 0 0 1 34.374 50a37.461 37.461 0 0 1-10.938 26.484m53.127-52.967a37.54 37.54 0 0 0 0 52.968M12.5 50h75M50 12.5v75"/></svg><svg fill="none" viewBox="0 0 100 100" id="BookmarksSimple" xmlns="http://www.w3.org/2000/svg"><path stroke="#fff" stroke-linecap="round" stroke-linejoin="round" stroke-width="3" d="M65.625 87.5 43.75 71.875 21.875 87.5V28.125A3.125 3.125 0 0 1 25 25h37.5a3.125 3.125 0 0 1 3.125 3.125V87.5Z"/><path stroke="#fff" stroke-linecap="round" stroke-linejoin="round" stroke-width="3" d="M34.375 12.5H75a3.125 3.125 0 0 1 3.125 3.125V75"/></svg><svg fill="none" viewBox="0 0 100 100" id="Camera" xmlns="http://www.w3.org/2000/svg"><path stroke="#fff" stroke-linecap="round" stroke-linejoin="round" stroke-width="3" d="M81.25 81.25h-62.5A6.25 6.25 0 0 1 12.5 75V31.25A6.25 6.25 0 0 1 18.75 25h12.5l6.25-9.375h25L68.75 25h12.5a6.25 6.25 0 0 1 6.25 6.25V75a6.25 6.25 0 0 1-6.25 6.25Z"/><path stroke="#fff" stroke-linecap="round" stroke-linejoin="round" stroke-width="3" d="M50 65.625c7.767 0 14.063-6.296 14.063-14.063C64.063 43.797 57.766 37.5 50 37.5c-7.767 0-14.063 6.296-14.063 14.063 0 7.766 6.297 14.062 14.063 14.062Z"/></svg><svg fill="none" viewBox="0 0 40 40" id="Coinbase" xmlns="http://www.w3.org/2000/svg"><g clip-path="url(#afa)"><path d="M20 40c11.046 0 20-8.954 20-20S31.046 0 20 0 0 8.954 0 20s8.954 20 20 20Z" fill="#0052FF"/><path fill-rule="evenodd" clip-rule="evenodd" d="M5.938 20c0 7.767 6.295 14.063 14.062 14.063 7.767 0 14.063-6.297 14.063-14.063 0-7.767-6.297-14.063-14.063-14.063-7.767 0-14.063 6.296-14.063 14.063Zm10.468-4.531a.937.937 0 0 0-.937.937v7.188c0 .517.42.937.937.937h7.188c.517 0 .937-.42.937-.937v-7.188a.937.937 0 0 0-.937-.937h-7.188Z" fill="#fff"/></g><defs><clipPath id="afa"><path fill="#fff" d="M0 0h40v40H0z"/></clipPath></defs></svg><svg fill="none" viewBox="0 0 32 32" id="Copy" xmlns="http://www.w3.org/2000/svg"><path fill="#fff" fill-rule="evenodd" d="M10 5a1 1 0 0 1 1-1h16a1 1 0 0 1 1 1v16a1 1 0 0 1-1 1h-6a1 1 0 1 1 0-2h5V6H12v5a1 1 0 1 1-2 0V5Z" clip-rule="evenodd"/><path fill="#fff" fill-rule="evenodd" d="M4 11a1 1 0 0 1 1-1h16a1 1 0 0 1 1 1v16a1 1 0 0 1-1 1H5a1 1 0 0 1-1-1V11Zm2 1v14h14V12H6Z" clip-rule="evenodd"/></svg><svg fill="none" viewBox="0 0 276 276" id="CreateCollecIcon_" xmlns="http://www.w3.org/2000/svg"><g clip-path="url(#aha)"><path fill="url(#ahb)" d="M138 253c63.513 0 115-51.487 115-115S201.513 23 138 23 23 74.487 23 138s51.487 115 115 115Z"/><g filter="url(#ahc)"><path fill="url(#ahd)" d="M138 222c46.392 0 84-37.608 84-84s-37.608-84-84-84-84 37.608-84 84 37.608 84 84 84Z"/></g><path fill="#fff" fill-rule="evenodd" d="M83.096 51.58a3.484 3.484 0 1 0 0-6.967 3.484 3.484 0 0 0 0 6.967Zm0 2.613a6.097 6.097 0 1 0 0-12.193 6.097 6.097 0 0 0 0 12.193Zm-32 144.387a3.484 3.484 0 1 0 0-6.968 3.484 3.484 0 0 0 0 6.968Zm0 2.613a6.097 6.097 0 1 0 0-12.194 6.097 6.097 0 0 0 0 12.194Zm175-100.613a3.484 3.484 0 1 0 0-6.968 3.484 3.484 0 0 0 0 6.968Zm0 2.613a6.097 6.097 0 1 0 0-12.195 6.097 6.097 0 0 0 0 12.195Z" clip-rule="evenodd"/><path fill="#fff" d="M43.391 52.189c.256-1.062 1.766-1.062 2.022 0l.863 3.572c.091.38.387.676.767.767l3.572.863c1.062.256 1.062 1.766 0 2.022l-3.572.863a1.04 1.04 0 0 0-.767.767l-.863 3.572c-.256 1.062-1.766 1.062-2.022 0l-.862-3.572a1.04 1.04 0 0 0-.768-.767l-3.572-.863c-1.062-.256-1.062-1.766 0-2.022l3.572-.863a1.04 1.04 0 0 0 .768-.767l.862-3.572Z"/><path fill="url(#ahe)" d="M229.294 51.591c.28-1.163 1.935-1.163 2.216 0l.946 3.916c.1.416.425.74.84.841l3.916.946c1.164.28 1.164 1.935 0 2.216l-3.916.946c-.415.1-.74.425-.84.84l-.946 3.917c-.281 1.163-1.936 1.163-2.216 0l-.946-3.917a1.14 1.14 0 0 0-.841-.84l-3.916-.946c-1.163-.28-1.163-1.936 0-2.216l3.916-.946c.416-.1.741-.425.841-.84l.946-3.917Z"/><path fill="url(#ahf)" d="M55.03 221.238c1.325-.212 2.382 1.088 1.904 2.341l-3.23 8.455c-.478 1.253-2.133 1.518-2.979.477l-5.707-7.024c-.846-1.04-.248-2.606 1.076-2.818l8.937-1.431Z"/><path fill="url(#ahg)" d="M213.978 198.007c-.331-1.3.868-2.47 2.159-2.108l8.714 2.449c1.29.363 1.705 1.987.745 2.923l-6.477 6.322c-.96.937-2.573.483-2.905-.816l-2.236-8.77Z"/><path fill="url(#ahh)" d="m182.509 153.865-77.647-28.262c-5.952-2.166-12.533.903-14.7 6.855l-18.33 50.36c-2.165 5.952.903 12.533 6.855 14.699l77.648 28.262c5.952 2.166 12.533-.903 14.699-6.855l18.33-50.36c2.166-5.952-.903-12.533-6.855-14.699Z"/><path fill="url(#ahi)" d="m179.357 169.463 22.937-33.039c3.612-5.203 2.323-12.349-2.88-15.961l-33.039-22.938c-5.203-3.612-12.349-2.322-15.961 2.881l-22.937 33.039c-3.612 5.203-2.323 12.349 2.88 15.961l33.039 22.937c5.203 3.612 12.349 2.322 15.961-2.88Z"/><path fill="url(#ahj)" d="M153.244 143.168a4.314 4.314 0 0 1-6.033.958 4.315 4.315 0 0 1-.958-6.033 4.315 4.315 0 0 1 6.034-.958 4.315 4.315 0 0 1 .957 6.033Z"/><path fill="url(#ahk)" d="m166.008 125.555-2.669-1.936-12.745 17.575 2.669 1.936 12.745-17.575Z"/><path fill="url(#ahl)" d="M168.242 146.287a4.314 4.314 0 0 1-6.033.958 4.314 4.314 0 0 1-.958-6.033 4.314 4.314 0 0 1 6.033-.958 4.314 4.314 0 0 1 .958 6.033Z"/><path fill="url(#ahm)" d="m181.031 128.664-2.669-1.935-12.743 17.577 2.67 1.935 12.742-17.577Z"/><path fill="url(#ahn)" d="m180.997 128.708-19.354-2.74 1.7-2.353 19.351 2.749-1.697 2.344Z"/><path fill="url(#aho)" d="m177.784 133.138-19.355-2.74 1.7-2.353 19.36 2.752-1.705 2.341Z"/><path fill="url(#ahp)" d="m162.372 96.33-6.717-31.12c-1.336-6.192-7.439-10.128-13.63-8.791l-40.694 8.783c-6.19 1.337-10.127 7.439-8.79 13.63l6.717 31.12c1.336 6.191 7.438 10.127 13.63 8.791l40.693-8.784c6.192-1.336 10.127-7.438 8.791-13.63Z"/><path fill="url(#ahq)" d="m161.842 93.132-22.811-18.316-8.819 17.387-9.29-5.356-12.844 17.879-9.634 2.076.459 2.156c1.548 7.157 8.601 11.71 15.758 10.161l37.467-8.085c7.157-1.548 11.71-8.601 10.161-15.758l-.458-2.144h.011Z"/><path fill="#fff" d="M107.848 84.77a4.975 4.975 0 0 0 4.484-6.95 4.965 4.965 0 0 0-4.645-2.993 4.975 4.975 0 0 0-4.484 6.95 4.965 4.965 0 0 0 4.645 2.994Z" opacity=".9"/><path fill="url(#ahr)" d="M169.833 217.079c-1.587 6.672-8.636 10.469-15.08 8.123L77.25 196.993a11.468 11.468 0 0 1-7.235-13.431l11.006-46.264c1.587-6.672 8.636-10.469 15.08-8.123l77.503 28.209a11.469 11.469 0 0 1 7.235 13.431l-11.006 46.264Z"/></g><defs><linearGradient id="ahb" x1="55.083" x2="230.623" y1="23" y2="59.541" gradientUnits="userSpaceOnUse"><stop stop-color="#A259FF"/><stop offset="1" stop-color="#3B3B3B"/></linearGradient><linearGradient id="ahd" x1="235" x2="172.494" y1="152" y2="259.743" gradientUnits="userSpaceOnUse"><stop stop-color="#A259FF" stop-opacity="0"/><stop offset="1" stop-color="#FF6250"/></linearGradient><linearGradient id="ahe" x1="233.687" x2="248.417" y1="54.133" y2="65.703" gradientUnits="userSpaceOnUse"><stop stop-color="#A259FF"/><stop offset="1" stop-color="#377DF7"/></linearGradient><linearGradient id="ahf" x1="56.396" x2="55.904" y1="225.526" y2="240.182" gradientUnits="userSpaceOnUse"><stop stop-color="#A259FF"/><stop offset="1" stop-color="#377DF7"/></linearGradient><linearGradient id="ahg" x1="218.125" x2="232.765" y1="196.258" y2="195.418" gradientUnits="userSpaceOnUse"><stop stop-color="#A259FF"/><stop offset="1" stop-color="#377DF7"/></linearGradient><linearGradient id="ahh" x1="159.078" x2="201.913" y1="163.434" y2="265.809" gradientUnits="userSpaceOnUse"><stop stop-color="#A259FF"/><stop offset=".417" stop-color="#A259FF" stop-opacity="0"/></linearGradient><linearGradient id="ahi" x1="171.596" x2="98.01" y1="156.031" y2="178.644" gradientUnits="userSpaceOnUse"><stop stop-color="#FF7262"/><stop offset=".318" stop-color="#A259FF"/></linearGradient><linearGradient id="ahj" x1="160.028" x2="168.184" y1="123.154" y2="140.333" gradientUnits="userSpaceOnUse"><stop stop-color="#3B3B3B"/><stop offset="1" stop-color="#A259FF"/></linearGradient><linearGradient id="ahk" x1="188.84" x2="196.031" y1="93.656" y2="100.715" gradientUnits="userSpaceOnUse"><stop stop-color="#3B3B3B"/><stop offset="1" stop-color="#A259FF"/></linearGradient><linearGradient id="ahl" x1="175.026" x2="183.181" y1="126.274" y2="143.452" gradientUnits="userSpaceOnUse"><stop stop-color="#3B3B3B"/><stop offset="1" stop-color="#A259FF"/></linearGradient><linearGradient id="ahm" x1="203.858" x2="211.05" y1="96.76" y2="103.819" gradientUnits="userSpaceOnUse"><stop stop-color="#3B3B3B"/><stop offset="1" stop-color="#A259FF"/></linearGradient><linearGradient id="ahn" x1="185.53" x2="185.236" y1="114.266" y2="134.474" gradientUnits="userSpaceOnUse"><stop stop-color="#3B3B3B"/><stop offset="1" stop-color="#A259FF"/></linearGradient><linearGradient id="aho" x1="182.324" x2="182.028" y1="118.699" y2="138.907" gradientUnits="userSpaceOnUse"><stop stop-color="#3B3B3B"/><stop offset="1" stop-color="#A259FF"/></linearGradient><linearGradient id="ahp" x1="136.569" x2="149.555" y1="64.894" y2="107.339" gradientUnits="userSpaceOnUse"><stop stop-color="#FF7262"/><stop offset="1" stop-color="#A259FF"/></linearGradient><linearGradient id="ahq" x1="127.394" x2="113.288" y1="136.001" y2="83.897" gradientUnits="userSpaceOnUse"><stop stop-color="#A259FF"/><stop offset="1" stop-color="#fff"/></linearGradient><linearGradient id="ahr" x1="151.265" x2="97.323" y1="202.805" y2="65.561" gradientUnits="userSpaceOnUse"><stop stop-color="#A259FF"/><stop offset=".667" stop-color="#fff"/></linearGradient><clipPath id="aha"><path fill="#fff" d="M0 0h276v276H0z"/></clipPath><filter id="ahc" width="276" height="276" x="0" y="0" color-interpolation-filters="sRGB" filterUnits="userSpaceOnUse"><feFlood flood-opacity="0" result="BackgroundImageFix"/><feBlend in="SourceGraphic" in2="BackgroundImageFix" result="shape"/><feGaussianBlur result="effect1_foregroundBlur_1617_11612" stdDeviation="27"/></filter></defs></svg><svg viewBox="0 0 32 32" id="DiscordLogo" xmlns="http://www.w3.org/2000/svg"><path d="M12 19.5a1.5 1.5 0 1 0 0-3 1.5 1.5 0 0 0 0 3Zm8 0a1.5 1.5 0 1 0 0-3 1.5 1.5 0 0 0 0 3Z"/><path fill-rule="evenodd" d="M15.993 10a20.86 20.86 0 0 0-6.394.954 1 1 0 0 1-.598-1.909 22.862 22.862 0 0 1 7-1.045 22.862 22.862 0 0 1 6.998 1.045 1 1 0 1 1-.598 1.909A20.86 20.86 0 0 0 16.008 10h-.015ZM8.346 21.701a1 1 0 0 1 1.253-.655c2.069.648 4.226.97 6.394.954h.014a20.862 20.862 0 0 0 6.394-.954 1 1 0 0 1 .598 1.909A22.86 22.86 0 0 1 16 24a22.86 22.86 0 0 1-6.999-1.046 1 1 0 0 1-.655-1.253Z" clip-rule="evenodd"/><path fill-rule="evenodd" d="M20.22 4.811c.43-.242.935-.318 1.418-.213 1.317.286 2.607.686 3.855 1.197a1.962 1.962 0 0 1 1.179 1.286l4.236 14.144a2.013 2.013 0 0 1-.596 2.088l-.006.004c-2.067 1.8-4.868 3.16-8.05 3.94a1.976 1.976 0 0 1-2.266-1.053l-1.508-2.991a1 1 0 0 1 1.786-.9l1.512 3 .002.002c2.937-.72 5.432-1.958 7.212-3.507l.656.755-.662-.75a.011.011 0 0 0 .004-.006V21.8L24.756 7.655l-.01-.005a21.048 21.048 0 0 0-3.533-1.097h-.002a.012.012 0 0 0-.014.006l-.985 2.98a1 1 0 0 1-1.899-.628l.99-2.996c.16-.468.486-.86.917-1.104Zm-9.422 1.742a.012.012 0 0 0-.01 0h-.001a21.05 21.05 0 0 0-3.543 1.102L3.008 21.8v.007c0 .002.002.004.003.005 1.78 1.547 4.272 2.783 7.208 3.503v-.003l1.513-3a1 1 0 0 1 1.786.9l-1.508 2.992a1.975 1.975 0 0 1-2.266 1.054c-3.182-.78-5.983-2.142-8.05-3.94l-.006-.005a2.013 2.013 0 0 1-.596-2.087L5.328 7.08a1.963 1.963 0 0 1 1.18-1.286 23.05 23.05 0 0 1 3.855-1.197 2.013 2.013 0 0 1 2.334 1.317l.003.009.987 2.987a1 1 0 1 1-1.899.628l-.985-2.98a.013.013 0 0 0-.005-.006Z" clip-rule="evenodd"/><path d="M12 19.5a1.5 1.5 0 1 0 0-3 1.5 1.5 0 0 0 0 3Zm8 0a1.5 1.5 0 1 0 0-3 1.5 1.5 0 0 0 0 3Z"/><path fill-rule="evenodd" d="M15.993 10a20.86 20.86 0 0 0-6.394.954 1 1 0 0 1-.598-1.909 22.862 22.862 0 0 1 7-1.045 22.862 22.862 0 0 1 6.998 1.045 1 1 0 1 1-.598 1.909A20.86 20.86 0 0 0 16.008 10h-.015ZM8.346 21.701a1 1 0 0 1 1.253-.655c2.069.648 4.226.97 6.394.954h.014a20.862 20.862 0 0 0 6.394-.954 1 1 0 0 1 .598 1.909A22.86 22.86 0 0 1 16 24a22.86 22.86 0 0 1-6.999-1.046 1 1 0 0 1-.655-1.253Z" clip-rule="evenodd"/><path fill-rule="evenodd" d="M20.22 4.811c.43-.242.935-.318 1.418-.213 1.317.286 2.607.686 3.855 1.197a1.962 1.962 0 0 1 1.179 1.286l4.236 14.144a2.013 2.013 0 0 1-.596 2.088l-.006.004c-2.067 1.8-4.868 3.16-8.05 3.94a1.976 1.976 0 0 1-2.266-1.053l-1.508-2.991a1 1 0 0 1 1.786-.9l1.512 3 .002.002c2.937-.72 5.432-1.958 7.212-3.507l.656.755-.662-.75a.011.011 0 0 0 .004-.006V21.8L24.756 7.655l-.01-.005a21.048 21.048 0 0 0-3.533-1.097h-.002a.012.012 0 0 0-.014.006l-.985 2.98a1 1 0 0 1-1.899-.628l.99-2.996c.16-.468.486-.86.917-1.104Zm-9.422 1.742a.012.012 0 0 0-.01 0h-.001a21.05 21.05 0 0 0-3.543 1.102L3.008 21.8v.007c0 .002.002.004.003.005 1.78 1.547 4.272 2.783 7.208 3.503v-.003l1.513-3a1 1 0 0 1 1.786.9l-1.508 2.992a1.975 1.975 0 0 1-2.266 1.054c-3.182-.78-5.983-2.142-8.05-3.94l-.006-.005a2.013 2.013 0 0 1-.596-2.087L5.328 7.08a1.963 1.963 0 0 1 1.18-1.286 23.05 23.05 0 0 1 3.855-1.197 2.013 2.013 0 0 1 2.334 1.317l.003.009.987 2.987a1 1 0 1 1-1.899.628l-.985-2.98a.013.013 0 0 0-.005-.006Z" clip-rule="evenodd"/></svg><svg viewBox="0 0 32 32" id="EnvelopeSimple" xmlns="http://www.w3.org/2000/svg"><path fill-rule="evenodd" d="M3 7a1 1 0 0 1 1-1h24a1 1 0 0 1 1 1v17a2 2 0 0 1-2 2H5a2 2 0 0 1-2-2V7Zm2 1v16h22V8H5Z" clip-rule="evenodd"/><path fill-rule="evenodd" d="M3.263 6.324a1 1 0 0 1 1.413-.061L16 16.643l11.324-10.38a1 1 0 1 1 1.352 1.474l-12 11a1 1 0 0 1-1.352 0l-12-11a1 1 0 0 1-.061-1.413Z" clip-rule="evenodd"/></svg><svg viewBox="0 0 32 32" id="Eye" xmlns="http://www.w3.org/2000/svg"><path fill-rule="evenodd" d="M4.543 10.793C6.927 8.409 10.667 6 16 6c5.333 0 9.073 2.41 11.457 4.793a18.922 18.922 0 0 1 2.608 3.268 15.949 15.949 0 0 1 .789 1.404l.042.09.012.026.004.008v.003h.001c0 .001 0 .002-.913.408.914.406.914.407.913.407v.001l-.001.003-.004.008-.012.026-.042.09a15.949 15.949 0 0 1-.789 1.404 18.922 18.922 0 0 1-2.608 3.268C25.073 23.591 21.333 26 16 26c-5.333 0-9.073-2.41-11.457-4.793a18.919 18.919 0 0 1-2.608-3.268 15.958 15.958 0 0 1-.789-1.404 6.623 6.623 0 0 1-.042-.09l-.012-.026-.004-.008v-.003h-.001c0-.001 0-.002.913-.408a89.897 89.897 0 0 1-.913-.407v-.001l.001-.003.004-.008.012-.026.042-.09a15.958 15.958 0 0 1 .789-1.404 18.919 18.919 0 0 1 2.608-3.268ZM2 16l-.914-.406a1 1 0 0 0 0 .812L2 16Zm1.118 0c.118.22.287.52.51.873a16.92 16.92 0 0 0 2.33 2.92C8.072 21.909 11.332 24 16 24s7.927-2.09 10.043-4.207a16.915 16.915 0 0 0 2.33-2.92c.222-.353.391-.653.509-.873-.118-.22-.287-.52-.51-.873a16.915 16.915 0 0 0-2.33-2.92C23.928 10.091 20.668 8 16 8s-7.927 2.09-10.043 4.207a16.92 16.92 0 0 0-2.33 2.92 14.67 14.67 0 0 0-.509.873ZM30 16l.914.406a1 1 0 0 0 0-.812L30 16Z" clip-rule="evenodd"/><path fill-rule="evenodd" d="M16 12a4 4 0 1 0 0 8 4 4 0 0 0 0-8Zm-6 4a6 6 0 1 1 12 0 6 6 0 0 1-12 0Z" clip-rule="evenodd"/></svg><svg fill="none" viewBox="0 0 32 32" id="EyeSlash" xmlns="http://www.w3.org/2000/svg"><path fill="#fff" fill-rule="evenodd" d="M5.327 4.26a1 1 0 0 1 1.413.067l20 22a1 1 0 1 1-1.48 1.346l-20-22a1 1 0 0 1 .067-1.413Z" clip-rule="evenodd"/><path fill="#fff" fill-rule="evenodd" d="M13.377 11.627a1 1 0 0 1-.067 1.413A4 4 0 0 0 16 20h.004a3.95 3.95 0 0 0 2.683-1.038 1 1 0 0 1 1.35 1.475A5.95 5.95 0 0 1 15.999 22a6 6 0 0 1-4.033-10.44 1 1 0 0 1 1.412.067Z" clip-rule="evenodd"/><path fill="#fff" fill-rule="evenodd" d="M10.143 8.125A1 1 0 0 1 9.7 9.468c-2.377 1.2-4.08 2.939-5.194 4.393A16.289 16.289 0 0 0 3.118 16c.118.22.287.52.51.874a16.92 16.92 0 0 0 2.33 2.92C8.072 21.91 11.332 24 16 24h.008a13.737 13.737 0 0 0 6.292-1.468 1 1 0 0 1 .9 1.787A15.737 15.737 0 0 1 15.996 26c-5.33 0-9.07-2.41-11.453-4.793a18.919 18.919 0 0 1-2.608-3.268 15.957 15.957 0 0 1-.789-1.404 6.774 6.774 0 0 1-.042-.09l-.012-.025-.003-.009-.002-.002v-.002L2 16l-.914-.405.001-.003.003-.005.007-.016a4.847 4.847 0 0 1 .11-.23c.077-.153.19-.368.34-.633.3-.527.752-1.253 1.372-2.063 1.236-1.613 3.157-3.587 5.88-4.962a1 1 0 0 1 1.344.442ZM2 16l-.914-.405a1.001 1.001 0 0 0 0 .812L2 16Zm11.247-9.774c.91-.152 1.831-.228 2.754-.226L16 7V6h.001c5.332 0 9.072 2.41 11.456 4.793a18.919 18.919 0 0 1 2.608 3.268 15.951 15.951 0 0 1 .789 1.404l.042.09.012.026.004.008v.003l.001.001L30 16l-.914-.406-.007.016-.035.074a9.354 9.354 0 0 1-.157.306l-.005.01a14.21 14.21 0 0 0-.51-.873 16.915 16.915 0 0 0-2.33-2.92C23.928 10.091 20.668 8 16 8h-.002c-.81-.002-1.62.065-2.42.199a1 1 0 0 1-.33-1.973ZM30 16l.914.406a1 1 0 0 0 0-.812L30 16Zm-1.118 0c-.143.268-.361.651-.66 1.107a16.73 16.73 0 0 1-2.814 3.285 1 1 0 0 0 1.334 1.49 18.734 18.734 0 0 0 3.154-3.68c.339-.518.59-.958.757-1.272a11.386 11.386 0 0 0 .24-.478l.014-.03.004-.01.002-.003v-.002L30 16c-.914.406-.914.407-.913.407l-.006-.013-.03-.061a8.684 8.684 0 0 0-.17-.333Z" clip-rule="evenodd"/><path fill="#fff" fill-rule="evenodd" d="M15.955 10.902a1 1 0 0 1 1.169-.796 5.987 5.987 0 0 1 4.847 5.327 1 1 0 0 1-1.992.185 3.987 3.987 0 0 0-3.228-3.547 1 1 0 0 1-.796-1.17Z" clip-rule="evenodd"/></svg><svg viewBox="0 0 32 32" id="Globe" xmlns="http://www.w3.org/2000/svg"><path fill-rule="evenodd" d="M16 5C9.925 5 5 9.925 5 16s4.925 11 11 11 11-4.925 11-11S22.075 5 16 5ZM3 16C3 8.82 8.82 3 16 3s13 5.82 13 13-5.82 13-13 13S3 23.18 3 16Z" clip-rule="evenodd"/><path fill-rule="evenodd" d="M3.688 12a1 1 0 0 1 1-1h22.625a1 1 0 1 1 0 2H4.688a1 1 0 0 1-1-1Zm0 8a1 1 0 0 1 1-1h22.625a1 1 0 1 1 0 2H4.688a1 1 0 0 1-1-1Z" clip-rule="evenodd"/><path fill-rule="evenodd" d="M13.384 8.138C12.544 10.1 12 12.878 12 16s.544 5.9 1.384 7.862c.42.982.896 1.713 1.373 2.184.472.467.891.63 1.243.63.352 0 .771-.163 1.244-.63.476-.47.952-1.202 1.372-2.184C19.456 21.901 20 19.122 20 16s-.544-5.9-1.384-7.862c-.42-.982-.896-1.713-1.372-2.184-.473-.466-.892-.629-1.244-.629s-.771.162-1.243.63c-.477.47-.953 1.201-1.373 2.183Zm-.033-3.607c.724-.715 1.62-1.206 2.649-1.206s1.925.491 2.649 1.206c.72.71 1.322 1.69 1.806 2.82.97 2.265 1.545 5.323 1.545 8.65 0 3.325-.575 6.384-1.545 8.648-.484 1.13-1.086 2.11-1.806 2.82-.724.715-1.62 1.206-2.649 1.206s-1.925-.49-2.649-1.206c-.72-.71-1.322-1.69-1.806-2.82C10.575 22.385 10 19.326 10 16c0-3.326.575-6.384 1.545-8.649.484-1.13 1.087-2.11 1.806-2.82Z" clip-rule="evenodd"/></svg><svg viewBox="0 0 32 32" id="InstagramLogo" xmlns="http://www.w3.org/2000/svg"><path fill-rule="evenodd" d="M16 12a4 4 0 1 0 0 8 4 4 0 0 0 0-8Zm-6 4a6 6 0 1 1 12 0 6 6 0 0 1-12 0Z" clip-rule="evenodd"/><path fill-rule="evenodd" d="M10.5 5.5a5 5 0 0 0-5 5v11a5 5 0 0 0 5 5h11a5 5 0 0 0 5-5v-11a5 5 0 0 0-5-5h-11Zm-7 5a7 7 0 0 1 7-7h11a7 7 0 0 1 7 7v11a7 7 0 0 1-7 7h-11a7 7 0 0 1-7-7v-11Z" clip-rule="evenodd"/><path d="M22.5 11a1.5 1.5 0 1 0 0-3 1.5 1.5 0 0 0 0 3Z"/></svg><svg fill="none" viewBox="0 0 32 32" id="List" xmlns="http://www.w3.org/2000/svg"><path fill="#fff" fill-rule="evenodd" d="M4 16a1 1 0 0 1 1-1h22a1 1 0 1 1 0 2H5a1 1 0 0 1-1-1Zm0-8a1 1 0 0 1 1-1h15a1 1 0 1 1 0 2H5a1 1 0 0 1-1-1Zm0 16a1 1 0 0 1 1-1h15a1 1 0 1 1 0 2H5a1 1 0 0 1-1-1Z" clip-rule="evenodd"/></svg><svg viewBox="0 0 32 32" id="LockKey" xmlns="http://www.w3.org/2000/svg"><path fill-rule="evenodd" d="M16 16a1.5 1.5 0 1 0 0 3 1.5 1.5 0 0 0 0-3Zm-3.5 1.5a3.5 3.5 0 1 1 7 0 3.5 3.5 0 0 1-7 0Z" clip-rule="evenodd"/><path fill-rule="evenodd" d="M16 19a1 1 0 0 1 1 1v3a1 1 0 1 1-2 0v-3a1 1 0 0 1 1-1Z" clip-rule="evenodd"/><path fill-rule="evenodd" d="M4 12a2 2 0 0 1 2-2h20a2 2 0 0 1 2 2v14a2 2 0 0 1-2 2H6a2 2 0 0 1-2-2V12Zm22 0H6v14h20V12Z" clip-rule="evenodd"/><path fill-rule="evenodd" d="M16 3a3.5 3.5 0 0 0-3.5 3.5V11a1 1 0 1 1-2 0V6.5a5.5 5.5 0 0 1 11 0V11a1 1 0 1 1-2 0V6.5A3.5 3.5 0 0 0 16 3Z" clip-rule="evenodd"/></svg><svg fill="none" viewBox="0 0 244 32" id="Logo" xmlns="http://www.w3.org/2000/svg"><path fill="#A259FF" fill-rule="evenodd" d="M6 12.45a1 1 0 0 1 1 1V26h18V13.45a1 1 0 1 1 2 0V26a2 2 0 0 1-2 2H7a2 2 0 0 1-2-2V13.45a1 1 0 0 1 1-1ZM3 5a1 1 0 0 1 1-1h24a1 1 0 1 1 0 2H4a1 1 0 0 1-1-1Z" clip-rule="evenodd"/><path fill="#A259FF" fill-rule="evenodd" d="M4 7a1 1 0 0 1 1 1v2a3 3 0 0 0 6 0V8a1 1 0 1 1 2 0v2a5 5 0 1 1-10 0V8a1 1 0 0 1 1-1Z" clip-rule="evenodd"/><path fill="#A259FF" fill-rule="evenodd" d="M12 7a1 1 0 0 1 1 1v2a3 3 0 0 0 6 0V8a1 1 0 1 1 2 0v2a5 5 0 1 1-10 0V8a1 1 0 0 1 1-1Z" clip-rule="evenodd"/><path fill="#A259FF" fill-rule="evenodd" d="M20 7a1 1 0 0 1 1 1v2a3 3 0 0 0 6 0V8a1 1 0 1 1 2 0v2a5 5 0 1 1-10 0V8a1 1 0 0 1 1-1Z" clip-rule="evenodd"/><path fill="#fff" d="M51.48 22.548h.396V8.6h2.904V24h-5.676L47.3 10.052h-.396V24H44V8.6h5.676l1.804 13.948ZM58.065 8.6h9.856v2.772h-6.952v3.52h6.82v2.772h-6.82V24h-2.904V8.6Zm12.722 0h11.088v2.772h-4.092V24H74.88V11.372h-4.092V8.6Zm26.238 0h5.104l.88 11.572v2.244h.528v-2.244l.88-11.572h5.104V24h-2.64V13.704l.264-3.52h-.528L105.473 24h-4.356l-1.188-13.816H99.4l.264 3.52V24h-2.64V8.6Zm21.765 13.816c-.294.689-.704 1.18-1.232 1.474-.528.278-1.144.418-1.848.418a4.73 4.73 0 0 1-1.87-.374 4.429 4.429 0 0 1-1.518-1.1 5.517 5.517 0 0 1-1.056-1.76c-.25-.69-.374-1.474-.374-2.354v-.352c0-.866.124-1.643.374-2.332.249-.69.586-1.276 1.012-1.76a4.259 4.259 0 0 1 1.474-1.1 4.303 4.303 0 0 1 1.826-.396c.777 0 1.4.132 1.87.396.484.264.865.674 1.144 1.232h.396v-1.32h2.772V20.7c0 .44.198.66.594.66h.418V24h-1.892c-.499 0-.91-.147-1.232-.44-.308-.294-.462-.675-.462-1.144h-.396Zm-2.464-.748c.806 0 1.452-.264 1.936-.792.484-.543.726-1.276.726-2.2v-.264c0-.924-.242-1.65-.726-2.178-.484-.543-1.13-.814-1.936-.814-.807 0-1.452.27-1.936.814-.484.528-.726 1.254-.726 2.178v.264c0 .924.242 1.657.726 2.2.484.528 1.129.792 1.936.792Zm8.344-8.58h4.62v1.584h.396c.206-.602.55-1.064 1.034-1.386.499-.338 1.093-.506 1.782-.506 1.086 0 1.958.344 2.618 1.034.66.674.99 1.708.99 3.102v.484l-2.86.264v-.308c0-.602-.154-1.078-.462-1.43-.308-.367-.77-.55-1.386-.55-.616 0-1.1.212-1.452.638-.352.425-.528 1.034-.528 1.826v3.52h2.508V24h-7.524v-2.64h2.244v-5.632h-1.98v-2.64Zm17.651 4.004h.528l2.904-4.004h3.036v.132l-3.52 4.994v.396l3.872 5.258V24h-3.168l-3.124-4.268h-.528V24h-2.772V8.6h2.772v8.492Zm12.261 2.354c.014.322.088.623.22.902.146.264.337.498.572.704.249.19.528.344.836.462.322.102.66.154 1.012.154.689 0 1.217-.118 1.584-.352.366-.25.63-.543.792-.88l2.376 1.32a5.055 5.055 0 0 1-.55.88 3.917 3.917 0 0 1-.924.814c-.367.249-.822.454-1.364.616-.528.16-1.152.242-1.87.242-.822 0-1.57-.132-2.244-.396a5.063 5.063 0 0 1-1.76-1.144 5.363 5.363 0 0 1-1.144-1.826c-.264-.72-.396-1.533-.396-2.442v-.132c0-.836.139-1.6.418-2.288a5.314 5.314 0 0 1 1.188-1.76 5.282 5.282 0 0 1 1.738-1.122 5.587 5.587 0 0 1 2.156-.418c.938 0 1.745.168 2.42.506.674.322 1.232.74 1.672 1.254a4.81 4.81 0 0 1 .968 1.672c.205.6.308 1.188.308 1.76v1.474h-8.008Zm2.618-4.158c-.704 0-1.276.183-1.716.55-.44.352-.726.762-.858 1.232h5.148c-.088-.514-.367-.94-.836-1.276-.455-.338-1.034-.506-1.738-.506Zm8.102-2.2h3.234V8.6h2.772v4.488h3.938v2.64h-3.938V20.7c0 .44.198.66.594.66h2.948V24h-4.62c-.498 0-.909-.162-1.232-.484-.308-.323-.462-.734-.462-1.232v-6.556h-3.234v-2.64ZM181.281 28.4h-2.772V13.088h2.772v1.584h.396a3.161 3.161 0 0 1 1.276-1.386c.557-.338 1.269-.506 2.134-.506a4.51 4.51 0 0 1 1.826.374 4.159 4.159 0 0 1 1.518 1.1c.44.469.785 1.048 1.034 1.738.264.689.396 1.474.396 2.354v.396c0 .894-.125 1.686-.374 2.376a5.432 5.432 0 0 1-1.012 1.76 4.294 4.294 0 0 1-1.518 1.078 4.878 4.878 0 0 1-1.87.352c-.499 0-.931-.052-1.298-.154a3.641 3.641 0 0 1-.968-.418 3.375 3.375 0 0 1-.682-.594 5.498 5.498 0 0 1-.462-.726h-.396V28.4Zm2.904-6.732c.865 0 1.562-.264 2.09-.792.543-.543.814-1.276.814-2.2v-.264c0-.924-.271-1.65-.814-2.178-.528-.543-1.225-.814-2.09-.814-.865 0-1.569.278-2.112.836-.528.542-.792 1.26-.792 2.156v.264c0 .894.264 1.62.792 2.178.543.542 1.247.814 2.112.814Zm8.301-.308h3.828V11.24h-3.696V8.6h6.468v12.76h3.564V24h-10.164v-2.64Zm20.598 1.056c-.293.689-.704 1.18-1.232 1.474-.528.278-1.144.418-1.848.418-.66 0-1.283-.125-1.87-.374a4.429 4.429 0 0 1-1.518-1.1 5.517 5.517 0 0 1-1.056-1.76c-.249-.69-.374-1.474-.374-2.354v-.352c0-.866.125-1.643.374-2.332.25-.69.587-1.276 1.012-1.76a4.277 4.277 0 0 1 1.474-1.1 4.306 4.306 0 0 1 1.826-.396c.778 0 1.401.132 1.87.396.484.264.866.674 1.144 1.232h.396v-1.32h2.772V20.7c0 .44.198.66.594.66h.418V24h-1.892c-.498 0-.909-.147-1.232-.44-.308-.294-.462-.675-.462-1.144h-.396Zm-2.464-.748c.807 0 1.452-.264 1.936-.792.484-.543.726-1.276.726-2.2v-.264c0-.924-.242-1.65-.726-2.178-.484-.543-1.129-.814-1.936-.814-.806 0-1.452.27-1.936.814-.484.528-.726 1.254-.726 2.178v.264c0 .924.242 1.657.726 2.2.484.528 1.13.792 1.936.792Zm19.521-1.672c-.249 1.29-.843 2.332-1.782 3.124-.924.792-2.163 1.188-3.718 1.188a6.738 6.738 0 0 1-2.266-.374 5.325 5.325 0 0 1-1.804-1.078 4.937 4.937 0 0 1-1.21-1.738c-.293-.69-.44-1.474-.44-2.354V18.5c0-.88.147-1.672.44-2.376a5.349 5.349 0 0 1 1.21-1.804 5.496 5.496 0 0 1 1.826-1.144 6.338 6.338 0 0 1 2.244-.396c1.525 0 2.757.396 3.696 1.188.953.792 1.555 1.833 1.804 3.124l-2.728.704a2.855 2.855 0 0 0-.836-1.672c-.469-.47-1.129-.704-1.98-.704-.396 0-.77.073-1.122.22a2.68 2.68 0 0 0-.924.638 2.951 2.951 0 0 0-.638.99c-.147.38-.22.814-.22 1.298v.132c0 .484.073.916.22 1.298.161.366.374.674.638.924.264.249.572.44.924.572.352.117.726.176 1.122.176.851 0 1.496-.213 1.936-.638.455-.426.748-.998.88-1.716l2.728.682Zm5.265-.55c.015.322.088.623.22.902.147.264.337.498.572.704.249.19.528.344.836.462.323.102.66.154 1.012.154.689 0 1.217-.118 1.584-.352.367-.25.631-.543.792-.88l2.376 1.32a4.996 4.996 0 0 1-.55.88 3.917 3.917 0 0 1-.924.814c-.367.249-.821.454-1.364.616-.528.16-1.151.242-1.87.242-.821 0-1.569-.132-2.244-.396a5.073 5.073 0 0 1-1.76-1.144 5.378 5.378 0 0 1-1.144-1.826c-.264-.72-.396-1.533-.396-2.442v-.132c0-.836.139-1.6.418-2.288a5.314 5.314 0 0 1 1.188-1.76 5.292 5.292 0 0 1 1.738-1.122 5.59 5.59 0 0 1 2.156-.418c.939 0 1.745.168 2.42.506.675.322 1.232.74 1.672 1.254.44.498.763 1.056.968 1.672.205.6.308 1.188.308 1.76v1.474h-8.008Zm2.618-4.158c-.704 0-1.276.183-1.716.55-.44.352-.726.762-.858 1.232h5.148c-.088-.514-.367-.94-.836-1.276-.455-.338-1.034-.506-1.738-.506Z"/></svg><svg fill="none" viewBox="0 0 100 100" id="MagicWand" xmlns="http://www.w3.org/2000/svg"><path stroke="#fff" stroke-linecap="round" stroke-linejoin="round" stroke-width="3" d="M84.375 50v18.75M75 59.375h18.75m-60.937-43.75V31.25M25 23.438h15.625m25 48.437v12.5m-6.25-6.25h12.5m.947-63.425L14.734 72.787a3.125 3.125 0 0 0 0 4.42l8.08 8.079a3.125 3.125 0 0 0 4.419 0L85.32 27.198a3.125 3.125 0 0 0 0-4.42L77.242 14.7a3.125 3.125 0 0 0-4.42 0ZM56.25 31.25l12.5 12.5"/></svg><svg fill="none" viewBox="0 0 32 32" id="MagnifyingGlass" xmlns="http://www.w3.org/2000/svg"><path fill="#fff" fill-rule="evenodd" d="M14.5 5a9.5 9.5 0 1 0 0 19 9.5 9.5 0 0 0 0-19ZM3 14.5C3 8.149 8.149 3 14.5 3S26 8.149 26 14.5 20.851 26 14.5 26 3 20.851 3 14.5Z" clip-rule="evenodd"/><path fill="#fff" fill-rule="evenodd" d="M21.218 21.218a1 1 0 0 1 1.414 0l6.075 6.075a1 1 0 0 1-1.414 1.414l-6.075-6.075a1 1 0 0 1 0-1.414Z" clip-rule="evenodd"/></svg><svg fill="none" viewBox="0 0 40 40" id="Metamask" xmlns="http://www.w3.org/2000/svg"><g clip-path="url(#ata)" stroke-width=".313" stroke-linecap="round" stroke-linejoin="round"><path d="M38.008 1.563 22.4 13.155l2.887-6.84 12.721-4.753Z" fill="#E2761B" stroke="#E2761B"/><path d="m1.977 1.563 15.482 11.701-2.745-6.949L1.977 1.562ZM32.393 28.434l-4.157 6.368 8.894 2.447 2.557-8.674-7.294-.141ZM.33 28.575l2.541 8.674 8.894-2.447-4.156-6.368-7.279.14Z" fill="#E4761B" stroke="#E4761B"/><path d="m11.264 17.673-2.479 3.75 8.831.391-.313-9.49-6.04 5.35ZM28.722 17.672l-6.118-5.46-.204 9.6 8.816-.391-2.494-3.75ZM11.766 34.801l5.302-2.588-4.58-3.576-.722 6.164ZM22.918 32.213l5.318 2.588-.738-6.164-4.58 3.576Z" fill="#E4761B" stroke="#E4761B"/><path d="m28.236 34.801-5.318-2.588.424 3.467-.048 1.458 4.942-2.337ZM11.766 34.801l4.94 2.337-.03-1.458.392-3.467-5.302 2.588Z" fill="#D7C1B3" stroke="#D7C1B3"/><path d="m16.785 26.347-4.424-1.302 3.122-1.428 1.302 2.73ZM23.2 26.347l1.301-2.73 3.137 1.428-4.439 1.302Z" fill="#233447" stroke="#233447"/><path d="m11.764 34.802.753-6.368-4.91.14 4.157 6.228ZM27.482 28.434l.753 6.368 4.157-6.227-4.91-.141ZM31.216 21.422l-8.816.392.816 4.533 1.302-2.729 3.137 1.427 3.561-3.623ZM12.36 25.045l3.137-1.427 1.286 2.73.832-4.534-8.832-.392 3.577 3.623Z" fill="#CD6116" stroke="#CD6116"/><path d="m8.785 21.422 3.702 7.216-.125-3.593-3.577-3.623ZM27.655 25.045l-.157 3.593 3.718-7.216-3.561 3.623ZM17.616 21.814l-.83 4.534 1.034 5.349.236-7.043-.44-2.84ZM22.4 21.814l-.423 2.824.188 7.059 1.05-5.35-.815-4.533Z" fill="#E4751F" stroke="#E4751F"/><path d="m23.215 26.347-1.05 5.349.752.518 4.58-3.577.157-3.592-4.439 1.302ZM12.361 25.045l.126 3.592 4.58 3.577.753-.518-1.035-5.35-4.424-1.301Z" fill="#F6851B" stroke="#F6851B"/><path d="m23.295 37.138.047-1.459-.392-.345h-5.914l-.36.345.03 1.459-4.94-2.337 1.725 1.411 3.498 2.432h6.008l3.514-2.431 1.725-1.412-4.941 2.337Z" fill="#C0AD9E" stroke="#C0AD9E"/><path d="m22.917 32.213-.753-.518h-4.345l-.753.518-.392 3.467.36-.346h5.914l.392.346-.423-3.467Z" fill="#161616" stroke="#161616"/><path d="M38.667 13.908 40 7.508l-1.992-5.946-15.09 11.2 5.804 4.91 8.204 2.4 1.82-2.117-.785-.565 1.255-1.145-.973-.753 1.255-.957-.831-.627ZM0 7.508l1.333 6.4-.847.627 1.255.957-.957.753L2.04 17.39l-.784.565 1.804 2.117 8.204-2.4 5.804-4.91-15.09-11.2L0 7.508Z" fill="#763D16" stroke="#763D16"/><path d="m36.925 20.072-8.203-2.4 2.494 3.749-3.718 7.216 4.894-.063h7.294l-2.76-8.502ZM11.263 17.672l-8.204 2.4L.33 28.574H7.61l4.878.063-3.702-7.216 2.478-3.75ZM22.4 21.814l.517-9.05L25.3 6.316H14.713l2.353 6.448.549 9.05.188 2.855.016 7.028h4.345l.031-7.028.204-2.855Z" fill="#F6851B" stroke="#F6851B"/></g><defs><clipPath id="ata"><path fill="#fff" d="M0 0h40v40H0z"/></clipPath></defs></svg><svg fill="none" viewBox="0 0 100 100" id="MusicNotes" xmlns="http://www.w3.org/2000/svg"><path stroke="#fff" stroke-linecap="round" stroke-linejoin="round" stroke-width="3" d="M70.313 78.125c6.04 0 10.937-4.897 10.937-10.938 0-6.04-4.897-10.937-10.938-10.937-6.04 0-10.937 4.897-10.937 10.938 0 6.04 4.897 10.937 10.938 10.937Zm-50 12.5c6.04 0 10.937-4.897 10.937-10.938 0-6.04-4.897-10.937-10.938-10.937-6.04 0-10.937 4.897-10.937 10.938 0 6.04 4.897 10.937 10.938 10.937ZM81.25 31.25l-50 12.5"/><path stroke="#fff" stroke-linecap="round" stroke-linejoin="round" stroke-width="3" d="M31.25 79.688V25l50-12.5v54.688"/></svg><svg fill="none" viewBox="0 0 100 100" id="PaintBrush" xmlns="http://www.w3.org/2000/svg"><path stroke="#fff" stroke-linecap="round" stroke-linejoin="round" stroke-width="3" d="M7.813 84.375h28.125a20.312 20.312 0 1 0-20.313-20.313c0 14.063-7.813 20.313-7.813 20.313Z"/><path stroke="#fff" stroke-linecap="round" stroke-linejoin="round" stroke-width="3" d="M43.906 45.39c7.5-10.117 26.562-33.28 43.984-33.28 0 17.421-23.164 36.484-33.281 43.984"/><path stroke="#fff" stroke-linecap="round" stroke-linejoin="round" stroke-width="3" d="M51.953 35.392A33.36 33.36 0 0 1 64.61 48.048"/></svg><svg fill="none" viewBox="0 0 100 100" id="Planet" xmlns="http://www.w3.org/2000/svg"><path stroke="#fff" stroke-linecap="round" stroke-linejoin="round" stroke-width="3" d="M50 84.375c18.985 0 34.375-15.39 34.375-34.375S68.985 15.625 50 15.625 15.625 31.015 15.625 50 31.015 84.375 50 84.375Z"/><path stroke="#fff" stroke-linecap="round" stroke-linejoin="round" stroke-width="3" d="M71.953 23.556C82.773 20.586 90.898 20.86 93.32 25c4.297 7.46-11.601 24.727-35.508 38.516C33.906 77.306 11.015 82.462 6.68 75c-2.382-4.14 1.446-11.328 9.415-19.219"/></svg><svg viewBox="0 0 32 32" id="Plus" xmlns="http://www.w3.org/2000/svg"><path fill-rule="evenodd" d="M4 16a1 1 0 0 1 1-1h22a1 1 0 1 1 0 2H5a1 1 0 0 1-1-1Z" clip-rule="evenodd"/><path fill-rule="evenodd" d="M16 4a1 1 0 0 1 1 1v22a1 1 0 1 1-2 0V5a1 1 0 0 1 1-1Z" clip-rule="evenodd"/></svg><svg fill="none" viewBox="0 0 32 32" id="Rocket" xmlns="http://www.w3.org/2000/svg"><path fill="#fff" fill-rule="evenodd" d="M13 28a1 1 0 0 1 1-1h4a1 1 0 1 1 0 2h-4a1 1 0 0 1-1-1Zm1.743-26.3a1.975 1.975 0 0 1 2.517.002c1.242 1.012 3.93 3.519 5.417 7.384 1.509 3.921 1.739 9.137-1.807 15.406A1 1 0 0 1 20 25h-8a1 1 0 0 1-.866-.5c-3.618-6.271-3.396-11.494-1.87-15.422 1.5-3.866 4.223-6.372 5.48-7.379ZM16 3.254c-1.122.898-3.549 3.14-4.873 6.547C9.863 13.058 9.563 17.48 12.585 23h6.824c2.958-5.519 2.655-9.939 1.401-13.196-1.308-3.402-3.697-5.642-4.81-6.549Z" clip-rule="evenodd"/><path fill="#fff" fill-rule="evenodd" d="M9.878 13.157a1 1 0 0 1 .127 1.409l-3.917 4.69v.003l1.538 6.96 3.75-3a1 1 0 0 1 1.249 1.562l-3.75 3a2.002 2.002 0 0 1-2.744-.234 2 2 0 0 1-.457-.89v-.004l-1.535-6.95a1.95 1.95 0 0 1 .41-1.723l3.92-4.696a1 1 0 0 1 1.41-.127Zm12.169-.1a1 1 0 0 1 1.409.128l3.996 4.796a1.95 1.95 0 0 1 .41 1.721l-1.535 6.951-.001.004a2 2 0 0 1-3.2 1.125l-3.75-3a1 1 0 0 1 1.249-1.563l3.75 3 1.536-6.96v-.003l-3.992-4.79a1 1 0 0 1 .128-1.409Z" clip-rule="evenodd"/><path fill="#fff" d="M16 13.5a1.5 1.5 0 1 0 0-3 1.5 1.5 0 0 0 0 3Z"/></svg><svg viewBox="0 0 32 32" id="RocketLaunch" xmlns="http://www.w3.org/2000/svg"><path fill-rule="evenodd" d="M9.873 19.919a1 1 0 0 1-.63 1.266c-1.694.57-2.595 1.993-3.077 3.44a9.645 9.645 0 0 0-.376 1.585 9.633 9.633 0 0 0 1.585-.376c1.447-.482 2.87-1.383 3.44-3.078a1 1 0 0 1 1.895.638c-.855 2.542-2.97 3.76-4.703 4.338a11.801 11.801 0 0 1-3.291.58h-.027c-.001 0-.002 0-.002-1h-1v-.028a4.863 4.863 0 0 1 .01-.27 11.801 11.801 0 0 1 .571-3.021c.578-1.734 1.796-3.848 4.338-4.703a1 1 0 0 1 1.267.629Zm-5.185 7.394h-1a1 1 0 0 0 1 1v-1ZM26.474 5.526c-1.16-.167-4.018-.23-6.942 2.693L11.752 16 16 20.25l7.78-7.781c2.924-2.924 2.861-5.781 2.694-6.942Zm.29-1.979c-1.596-.231-5.155-.233-8.646 3.258L9.63 15.293a1 1 0 0 0 0 1.414l5.663 5.662a1 1 0 0 0 1.414 0l8.488-8.487c3.49-3.491 3.489-7.05 3.258-8.646a1.975 1.975 0 0 0-1.69-1.689Z" clip-rule="evenodd"/><path fill-rule="evenodd" d="M23.075 13.588a1 1 0 0 1 1 1v8.089a2 2 0 0 1-.595 1.395l-4.036 4.048a2 2 0 0 1-3.375-1.024l-1.05-5.236a1 1 0 1 1 1.961-.394l1.05 5.24 4.045-4.057v-8.061a1 1 0 0 1 1-1ZM9.323 7.925h8.089a1 1 0 1 1 0 2h-8.06l-.009.008-4.048 4.036h.001l5.238 1.05a1 1 0 0 1-.393 1.961l-5.236-1.05h-.001a2 2 0 0 1-1.024-3.374l.001-.002L7.928 8.52a2 2 0 0 1 1.395-.595Z" clip-rule="evenodd"/></svg><svg fill="none" viewBox="0 0 276 276" id="SetupWalletIcon_" xmlns="http://www.w3.org/2000/svg"><g clip-path="url(#baa)"><path fill="url(#bab)" d="M138 253c63.513 0 115-51.487 115-115S201.513 23 138 23 23 74.487 23 138s51.487 115 115 115Z"/><g filter="url(#bac)"><path fill="url(#bad)" d="M138 222c46.392 0 84-37.608 84-84s-37.608-84-84-84-84 37.608-84 84 37.608 84 84 84Z"/></g><path fill="#fff" fill-rule="evenodd" d="M130.096 44.58a3.484 3.484 0 1 0 0-6.968 3.484 3.484 0 0 0 0 6.968Zm0 2.613a6.097 6.097 0 1 0 0-12.194 6.097 6.097 0 0 0 0 12.194Zm-83 157.387a3.484 3.484 0 1 0 0-6.968 3.484 3.484 0 0 0 0 6.968Zm0 2.613a6.097 6.097 0 1 0 0-12.194 6.097 6.097 0 0 0 0 12.194Zm191.002-10.613a3.484 3.484 0 1 0 0-6.968 3.484 3.484 0 0 0 0 6.968Zm0 2.613a6.097 6.097 0 1 0 0-12.195 6.097 6.097 0 0 0 0 12.195Z" clip-rule="evenodd"/><path fill="#fff" d="M73.391 60.189c.256-1.062 1.766-1.062 2.022 0l.863 3.572c.091.38.388.676.767.767l3.572.863c1.062.256 1.062 1.766 0 2.022l-3.572.862a1.04 1.04 0 0 0-.767.768l-.863 3.572c-.256 1.062-1.766 1.062-2.022 0l-.862-3.572a1.04 1.04 0 0 0-.767-.768l-3.573-.862c-1.062-.256-1.062-1.766 0-2.022l3.573-.863a1.04 1.04 0 0 0 .767-.767l.862-3.572Z"/><path fill="url(#bae)" d="M221.296 216.591c.281-1.163 1.936-1.163 2.217 0l.945 3.916c.1.416.425.741.841.841l3.916.946c1.163.28 1.163 1.935 0 2.216l-3.916.946a1.14 1.14 0 0 0-.841.84l-.945 3.916c-.281 1.164-1.936 1.164-2.217 0l-.946-3.916a1.14 1.14 0 0 0-.84-.84l-3.916-.946c-1.164-.281-1.164-1.936 0-2.216l3.916-.946c.415-.1.74-.425.84-.841l.946-3.916Z"/><path fill="url(#baf)" d="M57.03 231.238c1.325-.212 2.382 1.088 1.904 2.341l-3.23 8.455c-.478 1.253-2.133 1.518-2.979.477l-5.707-7.024c-.846-1.04-.248-2.606 1.076-2.818l8.937-1.431Z"/><path fill="url(#bag)" d="M226.98 69.006c-.331-1.3.868-2.47 2.159-2.107l8.714 2.448c1.29.363 1.705 1.987.745 2.924l-6.477 6.322c-.96.936-2.573.483-2.905-.817l-2.236-8.77Z"/><path fill="url(#bah)" d="m197.967 129.711-18.893 3.673c-5.376 1.044-8.886 6.249-7.841 11.624 1.045 5.375 6.249 8.885 11.624 7.841l18.894-3.673c5.375-1.045 8.885-6.249 7.84-11.624-1.044-5.375-6.249-8.886-11.624-7.841Z"/><path fill="#EBEBEB" d="M205.392 139.403a4.434 4.434 0 1 0-8.861-.345 4.434 4.434 0 0 0 8.861.345Z"/><path fill="#DBDBDB" d="M201.421 141.615a2.428 2.428 0 1 0-.927-4.766 2.428 2.428 0 0 0 .927 4.766Z"/><path fill="url(#bai)" d="m168.011 99.85-96.47 18.752c-5.42 1.053-8.961 6.303-7.908 11.724l13.035 67.054c1.053 5.422 6.302 8.962 11.724 7.908l96.469-18.751c5.422-1.054 8.962-6.303 7.909-11.725l-13.035-67.054c-1.053-5.421-6.302-8.962-11.724-7.908Z"/><path fill="url(#baj)" d="m166.248 69.359 19.706 50.936a5.529 5.529 0 0 1-3.157 7.15l-80.783 31.253c-2.842 1.102-6.044-.316-7.148-3.163l-19.705-50.936a5.141 5.141 0 0 1 2.942-6.65l81.492-31.526a5.141 5.141 0 0 1 6.651 2.942l.002-.006Z"/><path fill="url(#bak)" d="M170.043 118.196a5.083 5.083 0 1 1-9.483 3.666 5.083 5.083 0 0 1 9.483-3.666Z"/><path fill="url(#bal)" d="M175.879 115.934a5.084 5.084 0 0 1-9.482 3.667 5.084 5.084 0 0 1 9.482-3.667Z"/><path fill="url(#bam)" d="m99.508 99.72-13.235 5.12a2.072 2.072 0 0 0-1.185 2.68l3.078 7.954a2.072 2.072 0 0 0 2.68 1.185l13.234-5.121a2.07 2.07 0 0 0 1.185-2.679l-3.077-7.954a2.072 2.072 0 0 0-2.68-1.185Z"/><path fill="#fff" d="m159.749 83.862-7.739 2.992a3.48 3.48 0 0 1-4.494-1.99 3.48 3.48 0 0 1 1.99-4.493l7.738-2.992a3.476 3.476 0 0 1 2.505 6.483Z"/><path fill="#F8F8F8" d="m92.45 128.416-.54.683s-.045.049-.077.061a.187.187 0 0 1-.18-.026c-.085-.073-.097-.185-.025-.26l.734-.952c.062-.072.188-.088.26-.026a.236.236 0 0 1 .072.12l1.763 4.554a.18.18 0 0 1-.104.236.186.186 0 0 1-.236-.105l-1.657-4.289-.01.004Zm3.166 3.55 1.505-2.988a1.39 1.39 0 0 0 .058-1.116 1.364 1.364 0 0 0-.663-.723 1.345 1.345 0 0 0-1.103-.052 1.38 1.38 0 0 0-.74.66l-.155.313c-.043.095-.16.135-.241.087-.096-.043-.136-.159-.088-.241l.153-.318c.207-.396.548-.691.94-.841a1.683 1.683 0 0 1 1.396.071c.41.202.697.536.844.918.167.438.162.947-.067 1.41l-1.289 2.561 2.349-.902c.09-.04.197.004.236.105a.186.186 0 0 1-.106.236l-2.764 1.071-.027.011c-.05.02-.107.025-.149-.001-.094-.054-.135-.16-.092-.255l.003-.006Zm5.503-7.121-.772 1.813a1.796 1.796 0 0 1 1.025.125c.452.201.784.57.95 1.003.166.433.171.928-.035 1.382a1.834 1.834 0 0 1-1 .96 1.78 1.78 0 0 1-1.372-.039.183.183 0 0 1-.096-.248c.036-.099.147-.141.249-.096a1.44 1.44 0 0 0 1.882-.727c.161-.364.155-.752.024-1.093a1.38 1.38 0 0 0-.75-.784 1.4 1.4 0 0 0-1.088-.027.206.206 0 0 1-.17-.014l-.009.004a.186.186 0 0 1-.097-.254l.742-1.743-1.902.73a.18.18 0 0 1-.245-.101.189.189 0 0 1 .106-.247l2.321-.891a.182.182 0 0 1 .245.102.161.161 0 0 1 .007.087c0 .026-.007.05-.016.069l.001-.011Zm5.566 2.016L104 127.902l-.023.009c-.037.014-.082.021-.12.004a.173.173 0 0 1-.115-.231l1.489-4.682.005-.013a.174.174 0 0 1 .231-.115c.036.013.063.04.087.062.005.014.018.019.02.024l.009.023 1.315 3.4.332-.128c.101-.038.21.01.245.102a.186.186 0 0 1-.11.237l-.331.128.327.852a.185.185 0 0 1-.346.132l-.327-.852-.003.007Zm-.13-.341-1.125-2.902-1.22 3.813 2.348-.902-.003-.009Zm6.549-1.533a.18.18 0 0 1-.095-.249.19.19 0 0 1 .253-.097c.36.153.746.153 1.086.022.341-.131.623-.387.785-.75.162-.364.157-.748.026-1.088a1.418 1.418 0 0 0-.749-.796 1.44 1.44 0 0 0-1.086-.022 1.416 1.416 0 0 0-.794.754.188.188 0 0 1-.249.096.097.097 0 0 1-.062-.04l-.004-.009s-.014-.01-.018-.019c-.014-.011-.023-.034-.03-.052-.004-.009-.005-.025-.01-.039l-.534-2.093a.163.163 0 0 1 .02-.155.17.17 0 0 1 .099-.086l2.312-.887a.181.181 0 0 1 .245.101c.04.106-.01.21-.106.247l-2.165.831.394 1.55c.195-.25.455-.439.755-.554a1.754 1.754 0 0 1 1.375.032c.462.198.781.561.951 1.003.162.424.18.925-.031 1.381a1.833 1.833 0 0 1-1.003.95 1.801 1.801 0 0 1-1.38-.03l.015-.001Zm3.414-5.214c.11-.734.509-1.4 1.321-1.749.089-.044.197.004.242.093a.196.196 0 0 1-.1.249c-.685.295-.984.822-1.1 1.458-.059.355-.035.748.032 1.129a1.754 1.754 0 0 1 3.286-.03 1.758 1.758 0 0 1-3.259 1.325 2.785 2.785 0 0 1-.139-.322c-.248-.66-.392-1.435-.278-2.155l-.005.002Zm.757 2.314c.014.037.034.061.049.087.009.023.014.037.01.054a1.392 1.392 0 0 0 2.521-1.168 1.392 1.392 0 0 0-1.803-.787 1.388 1.388 0 0 0-.792 1.789l.01.027.005-.002Zm5.269-.462.15-5.061-2.4.921a.175.175 0 0 1-.232-.096.186.186 0 0 1 .105-.236l2.625-1.008a.148.148 0 0 1 .106-.04c.05.007.103.034.133.07.018.02.028.032.035.05a.167.167 0 0 1 .007.103l-.155 5.306a.187.187 0 0 1-.116.166.135.135 0 0 1-.075.013.202.202 0 0 1-.188-.187l.005-.001Zm3.071-6.616a1.11 1.11 0 0 1 1.431.629c.132.346.077.71-.102 1.001a1.726 1.726 0 1 1-1.228.477 1.116 1.116 0 0 1-.734-.675 1.099 1.099 0 0 1 .631-1.426l.002-.006Zm1.789 4.618a1.354 1.354 0 0 0 .779-1.757 1.357 1.357 0 0 0-1.758-.778 1.362 1.362 0 0 0-.778 1.757 1.356 1.356 0 0 0 1.757.778Zm-1.119-2.888a.764.764 0 0 0 .425-.972.74.74 0 0 0-.959-.419.735.735 0 0 0-.421.954.75.75 0 0 0 .959.435l-.004.002Zm8.145-5.14a1.747 1.747 0 0 1 2.188.814c.014.011.018.02.028.032.06.13.12.271.176.418.253.659.396 1.444.291 2.161-.115.72-.518 1.403-1.321 1.748l-.009.004c-.101.039-.206 0-.242-.092a.193.193 0 0 1 .1-.25c.674-.296.994-.825 1.1-1.458a3.281 3.281 0 0 0-.032-1.129 1.742 1.742 0 0 1-1.024 1.022 1.752 1.752 0 1 1-1.264-3.266l.009-.004Zm1.927 1.126a1.38 1.38 0 0 0-1.795-.78 1.385 1.385 0 0 0-.796 1.78 1.38 1.38 0 0 0 1.789.792 1.37 1.37 0 0 0 .797-1.791l.005-.001Zm1.939.233c-.256-.667-.324-1.339-.198-1.921.134-.558.45-1.028.952-1.221.502-.193 1.056-.057 1.528.264.476.346.894.883 1.155 1.549.256.667.31 1.344.185 1.915-.132.563-.447 1.038-.949 1.231-.502.192-1.056.056-1.531-.274-.477-.334-.887-.879-1.144-1.547l.002.004Zm.345-.132c.234.608.61 1.092 1.015 1.375.402.279.826.365 1.181.228.354-.136.601-.484.719-.962.106-.48.066-1.093-.167-1.701-.233-.608-.619-1.089-1.019-1.374-.412-.29-.826-.364-1.181-.228-.355.136-.616.474-.719.963-.106.479-.057 1.089.178 1.702l-.007-.003Zm4.618-4.063-.54.684s-.045.048-.077.061a.189.189 0 0 1-.18-.026c-.086-.073-.097-.185-.025-.26l.733-.953c.063-.071.188-.088.26-.025a.22.22 0 0 1 .072.12l1.764 4.553a.18.18 0 0 1-.105.236.185.185 0 0 1-.236-.105l-1.656-4.288-.01.003Zm3.164 3.547 1.505-2.987c.178-.364.194-.762.058-1.116a1.36 1.36 0 0 0-.663-.723 1.34 1.34 0 0 0-1.103-.052c-.313.12-.575.347-.741.659l-.154.313c-.043.096-.16.135-.241.087-.096-.042-.136-.159-.088-.241l.153-.317c.207-.397.548-.692.938-.847a1.687 1.687 0 0 1 1.396.072c.41.202.697.536.844.918.168.437.162.947-.067 1.41l-1.289 2.561 2.349-.902a.18.18 0 0 1 .236.105.186.186 0 0 1-.105.236l-2.764 1.071-.028.011c-.051.019-.107.025-.148-.001-.095-.054-.136-.16-.093-.255l.005-.002Zm9.75-8.764-.773 1.814a1.785 1.785 0 0 1 1.976 1.127c.166.433.171.928-.035 1.382a1.832 1.832 0 0 1-.996.958c-.423.163-.923.17-1.377-.036a.183.183 0 0 1-.095-.249.183.183 0 0 1 .248-.096 1.442 1.442 0 0 0 1.882-.727c.162-.363.155-.752.025-1.093a1.385 1.385 0 0 0-.751-.784 1.395 1.395 0 0 0-1.088-.026.205.205 0 0 1-.169-.015l-.009.004a.185.185 0 0 1-.097-.254l.741-1.742-1.902.73a.182.182 0 0 1-.245-.102.19.19 0 0 1 .106-.247l2.321-.891c.1-.043.208.005.245.102a.162.162 0 0 1 .007.087c0 .027-.007.05-.015.069l.001-.011Zm5.566 2.018-2.689 1.033-.008.008-.013.005c-.037.014-.08.026-.12.004a.173.173 0 0 1-.115-.231l1.489-4.682.005-.013c.035-.103.128-.149.231-.114.036.012.063.039.087.061a.042.042 0 0 0 .02.024l.009.023 1.315 3.4.332-.127a.187.187 0 0 1 .245.101.187.187 0 0 1-.11.238l-.331.127.327.852a.186.186 0 0 1-.11.237.185.185 0 0 1-.236-.105l-.327-.852-.001.011Zm-.131-.34-1.124-2.903-1.221 3.813 2.349-.901-.004-.009Zm2.303.107a.18.18 0 0 1-.095-.249.193.193 0 0 1 .253-.097c.36.152.745.153 1.086.023.341-.131.623-.387.785-.751.162-.363.157-.748.026-1.089a1.423 1.423 0 0 0-.749-.795 1.412 1.412 0 0 0-1.086-.022 1.418 1.418 0 0 0-.794.755c-.043.096-.156.143-.249.094a.095.095 0 0 1-.062-.038l-.004-.01s-.014-.009-.018-.019c-.015-.01-.023-.034-.03-.052-.004-.01-.005-.025-.01-.039l-.534-2.093a.165.165 0 0 1 .02-.156.17.17 0 0 1 .099-.085l2.311-.887c.1-.044.208.005.245.101a.184.184 0 0 1-.106.246l-2.164.831.394 1.551c.197-.244.455-.44.755-.554a1.75 1.75 0 0 1 1.375.032c.462.198.781.561.951 1.003.162.424.18.925-.031 1.381a1.833 1.833 0 0 1-1.003.95 1.801 1.801 0 0 1-1.38-.03l.015-.001Zm3.414-5.214c.11-.734.507-1.404 1.321-1.749.089-.044.197.004.241.093a.195.195 0 0 1-.099.25c-.683.298-.985.821-1.1 1.457-.059.355-.035.747.032 1.129a1.756 1.756 0 1 1 2.277 2.243 1.757 1.757 0 0 1-2.25-.949c-.055-.1-.095-.206-.139-.321-.249-.661-.393-1.435-.278-2.155l-.005.002Zm.757 2.314c.014.037.034.061.049.087.009.023.014.037.01.054a1.393 1.393 0 0 0 2.521-1.168 1.393 1.393 0 0 0-1.803-.788 1.39 1.39 0 0 0-.793 1.789l.011.028.005-.002Z"/><path fill="url(#ban)" d="m141.352 124.404-43.257 16.735.822 2.125 43.257-16.735-.822-2.125Z"/><path fill="url(#bao)" d="m130.547 134.016-30.625 11.848.822 2.126 30.625-11.848-.822-2.126Z"/><path fill="#3B3B3B" d="m142.226 83.188-19.446 7.523a1.14 1.14 0 1 0 .822 2.126l19.446-7.523a1.14 1.14 0 0 0-.822-2.126Z"/><path fill="url(#bap)" d="M177.861 137.486 76.508 157.188l7.887 40.576 101.354-19.701-7.888-40.577Z"/><path fill="#000" d="M177.861 137.486 76.508 157.188l7.887 40.576 101.354-19.701-7.888-40.577Z" opacity=".2"/><path fill="url(#baq)" d="m187.223 202.348-99.857 5.053a10 10 0 0 1-10.321-8.079l-14.375-73.95c-.339-1.745 1.454-3.132 3.058-2.365a11.63 11.63 0 0 0 5.991 1.092l89.704-7.673a9.999 9.999 0 0 1 10.669 8.055l15.135 77.861c0 .002-.002.005-.004.006Z"/><path fill="#EBEBEB" d="M166.013 165.928c2.324-.451 3.791-2.964 3.276-5.611-.514-2.647-2.815-4.427-5.139-3.976-2.324.452-3.791 2.964-3.276 5.612.515 2.647 2.816 4.427 5.139 3.975Z"/><path fill="#DBDBDB" d="M167.038 160.757c.239 1.23-.443 2.398-1.523 2.607-1.08.21-2.15-.617-2.389-1.847-.239-1.229.443-2.397 1.523-2.607 1.08-.21 2.15.617 2.389 1.847Z"/></g><defs><linearGradient id="bab" x1="55.083" x2="230.623" y1="23" y2="59.541" gradientUnits="userSpaceOnUse"><stop stop-color="#A259FF"/><stop offset="1" stop-color="#3B3B3B"/></linearGradient><linearGradient id="bad" x1="81.2" x2="243.658" y1="54" y2="85.331" gradientUnits="userSpaceOnUse"><stop stop-color="#A259FF" stop-opacity="0"/><stop offset="1" stop-color="#FF6250"/></linearGradient><linearGradient id="bae" x1="225.689" x2="240.419" y1="219.134" y2="230.703" gradientUnits="userSpaceOnUse"><stop stop-color="#A259FF"/><stop offset="1" stop-color="#377DF7"/></linearGradient><linearGradient id="baf" x1="58.396" x2="57.904" y1="235.526" y2="250.182" gradientUnits="userSpaceOnUse"><stop stop-color="#A259FF"/><stop offset="1" stop-color="#377DF7"/></linearGradient><linearGradient id="bag" x1="231.127" x2="245.767" y1="67.257" y2="66.418" gradientUnits="userSpaceOnUse"><stop stop-color="#A259FF"/><stop offset="1" stop-color="#377DF7"/></linearGradient><linearGradient id="bah" x1="175.551" x2="211.652" y1="134.068" y2="140.31" gradientUnits="userSpaceOnUse"><stop stop-color="#A259FF"/><stop offset="1" stop-color="#3B3B3B"/></linearGradient><linearGradient id="bai" x1="151.798" x2="112.799" y1="224.896" y2="148.311" gradientUnits="userSpaceOnUse"><stop stop-color="#A259FF"/><stop offset="1" stop-color="#3B3B3B"/></linearGradient><linearGradient id="baj" x1="88.016" x2="181.937" y1="93.9" y2="85.787" gradientUnits="userSpaceOnUse"><stop stop-color="#A259FF"/><stop offset="1" stop-color="#FF6250"/></linearGradient><linearGradient id="bak" x1="160.271" x2="170.129" y1="116.516" y2="114.763" gradientUnits="userSpaceOnUse"><stop stop-color="#A259FF"/><stop offset="1" stop-color="#FF6250"/></linearGradient><linearGradient id="bal" x1="166.108" x2="175.965" y1="114.254" y2="112.501" gradientUnits="userSpaceOnUse"><stop stop-color="#A259FF"/><stop offset="1" stop-color="#3B3B3B"/></linearGradient><linearGradient id="bam" x1="87.109" x2="104.739" y1="104.517" y2="102.801" gradientUnits="userSpaceOnUse"><stop stop-color="#A259FF"/><stop offset="1" stop-color="#3B3B3B"/></linearGradient><linearGradient id="ban" x1="105.098" x2="111.758" y1="138.429" y2="147.786" gradientUnits="userSpaceOnUse"><stop stop-color="#A259FF"/><stop offset="1" stop-color="#FF6250"/></linearGradient><linearGradient id="bao" x1="104.88" x2="112.188" y1="143.946" y2="152.37" gradientUnits="userSpaceOnUse"><stop stop-color="#A259FF"/><stop offset="1" stop-color="#FF6250"/></linearGradient><linearGradient id="bap" x1="92.918" x2="183.151" y1="153.998" y2="177.706" gradientUnits="userSpaceOnUse"><stop stop-color="#A259FF"/><stop offset="1" stop-color="#3B3B3B"/></linearGradient><linearGradient id="baq" x1="160.295" x2="3.981" y1="177.717" y2="102.697" gradientUnits="userSpaceOnUse"><stop stop-color="#A259FF"/><stop offset=".667" stop-color="#fff"/></linearGradient><clipPath id="baa"><path fill="#fff" d="M0 0h276v276H0z"/></clipPath><filter id="bac" width="276" height="276" x="0" y="0" color-interpolation-filters="sRGB" filterUnits="userSpaceOnUse"><feFlood flood-opacity="0" result="BackgroundImageFix"/><feBlend in="SourceGraphic" in2="BackgroundImageFix" result="shape"/><feGaussianBlur result="effect1_foregroundBlur_1617_11657" stdDeviation="27"/></filter></defs></svg><svg fill="none" viewBox="0 0 276 276" id="StartEarningIcon" xmlns="http://www.w3.org/2000/svg"><path fill="url(#bba)" d="M138 253c63.513 0 115-51.487 115-115S201.513 23 138 23 23 74.487 23 138s51.487 115 115 115Z"/><g filter="url(#bbb)"><path fill="url(#bbc)" d="M145 222c42.526 0 77-34.474 77-77s-34.474-77-77-77-77 34.474-77 77 34.474 77 77 77Z"/></g><path fill="#fff" fill-rule="evenodd" d="M62.096 90.58a3.484 3.484 0 1 0 0-6.967 3.484 3.484 0 0 0 0 6.967Zm0 2.613a6.097 6.097 0 1 0 0-12.193 6.097 6.097 0 0 0 0 12.193Zm-11 105.387a3.484 3.484 0 1 0 0-6.968 3.484 3.484 0 0 0 0 6.968Zm0 2.613a6.097 6.097 0 1 0 0-12.194 6.097 6.097 0 0 0 0 12.194Zm162-149.613a3.484 3.484 0 1 0 0-6.968 3.484 3.484 0 0 0 0 6.968Zm0 2.613a6.097 6.097 0 1 0 0-12.194 6.097 6.097 0 0 0 0 12.194Z" clip-rule="evenodd"/><path fill="#fff" d="M65.39 42.189c.257-1.062 1.767-1.062 2.023 0l.862 3.572c.092.38.388.676.768.767l3.572.863c1.062.256 1.062 1.766 0 2.022l-3.572.863a1.04 1.04 0 0 0-.768.767l-.862 3.572c-.256 1.062-1.766 1.062-2.022 0l-.863-3.572a1.04 1.04 0 0 0-.767-.767l-3.572-.863c-1.062-.256-1.062-1.766 0-2.022l3.572-.863a1.04 1.04 0 0 0 .767-.767l.863-3.572Z"/><path fill="url(#bbd)" d="M226.294 78.591c.28-1.163 1.935-1.163 2.216 0l.946 3.916c.1.416.425.74.84.841l3.916.946c1.164.28 1.164 1.935 0 2.216l-3.916.946c-.415.1-.74.425-.84.84l-.946 3.916c-.281 1.164-1.936 1.164-2.216 0l-.946-3.916a1.14 1.14 0 0 0-.841-.84l-3.916-.946c-1.163-.28-1.163-1.936 0-2.216l3.916-.946c.416-.1.741-.425.841-.84l.946-3.917Z"/><path fill="url(#bbe)" d="M55.031 221.238c1.324-.212 2.381 1.088 1.903 2.341l-3.23 8.455c-.478 1.253-2.133 1.518-2.978.477l-5.708-7.024c-.846-1.04-.248-2.606 1.076-2.818l8.937-1.431Z"/><path fill="url(#bbf)" d="M210.978 202.007c-.331-1.3.868-2.47 2.159-2.108l8.714 2.449c1.29.363 1.705 1.987.745 2.923l-6.477 6.322c-.96.937-2.573.483-2.905-.816l-2.236-8.77Z"/><g filter="url(#bbg)"><path fill="url(#bbh)" d="M199.026 226.466c0 6.17-29.269 11.171-65.373 11.171-36.104 0-65.372-5.001-65.372-11.171 0-6.17 29.268-11.171 65.372-11.171s65.373 5.001 65.373 11.171Z"/></g><g filter="url(#bbi)"><path fill="url(#bbj)" d="m134.925 66.09-42.579 7.508a6.29 6.29 0 0 0-5.101 7.286l10.731 60.859a6.288 6.288 0 0 0 7.286 5.101l42.578-7.507a6.29 6.29 0 0 0 5.102-7.286l-10.731-60.859a6.29 6.29 0 0 0-7.286-5.101Z"/></g><path fill="url(#bbk)" d="m135.541 97.375-33.075 5.832a2.05 2.05 0 0 0-1.662 2.373l.002.006a2.047 2.047 0 0 0 2.372 1.661l33.076-5.832a2.048 2.048 0 0 0 1.661-2.372l-.001-.007a2.049 2.049 0 0 0-2.373-1.66Z"/><path fill="url(#bbl)" d="m140.573 125.798-32.792 5.782c-1.104.195-1.845 1.227-1.655 2.306l.002.007c.19 1.079 1.239 1.796 2.343 1.601l32.792-5.782c1.105-.195 1.845-1.227 1.655-2.306l-.001-.007c-.19-1.079-1.24-1.796-2.344-1.601Z"/><path fill="url(#bbm)" d="m137.951 110.926-32.792 5.782c-1.104.195-1.845 1.227-1.655 2.306l.002.007c.19 1.079 1.239 1.796 2.343 1.601l32.792-5.782c1.104-.195 1.845-1.227 1.655-2.306l-.001-.006c-.191-1.079-1.24-1.796-2.344-1.602Z"/><path fill="#A259FF" d="m110.848 80.027-9.666 1.705a3.937 3.937 0 0 0-3.193 4.56l.473 2.682a3.936 3.936 0 0 0 4.56 3.193l9.666-1.704a3.936 3.936 0 0 0 3.193-4.56l-.473-2.683a3.936 3.936 0 0 0-4.56-3.193Z"/><g filter="url(#bbn)"><path fill="url(#bbo)" d="M185.668 82.873h-56.334a4.753 4.753 0 0 0-4.753 4.753v26.479a4.753 4.753 0 0 0 4.753 4.753h56.334a4.753 4.753 0 0 0 4.753-4.753V87.626a4.753 4.753 0 0 0-4.753-4.753Z"/></g><path fill="#fff" d="M138.485 106.326a5.465 5.465 0 1 0 0-10.93 5.465 5.465 0 0 0 0 10.93Zm19.529 0a5.464 5.464 0 1 0 0-10.929 5.464 5.464 0 0 0 0 10.929Zm19.528 0a5.464 5.464 0 1 0 0-10.929 5.464 5.464 0 0 0 0 10.929Z"/><path fill="url(#bbp)" fill-rule="evenodd" d="M128.217 178.014a4.924 4.924 0 0 1 5.705-3.995l28.139 4.962c3.845.678 7.32 2.463 9.783 5.043 2.462 2.578 4.13 6.243 3.415 10.301-.716 4.058-3.537 6.932-6.731 8.514-3.197 1.583-7.074 2.075-10.92 1.397l-66.862-11.79a4.925 4.925 0 0 1 1.71-9.7l66.863 11.79c1.994.351 3.711.035 4.838-.523 1.128-.559 1.36-1.157 1.402-1.398.042-.24.03-.879-.838-1.789-.868-.909-2.374-1.793-4.37-2.145l-28.255-5.965c-2.678-.472-4.352-2.024-3.879-4.702Z" clip-rule="evenodd"/><path fill="url(#bbq)" fill-rule="evenodd" d="M182.569 127.876a5.537 5.537 0 0 1 5.981-3.116l22.06 3.89a5.539 5.539 0 1 1-1.923 10.908l-17.873-3.152-10.558 22.663a5.538 5.538 0 1 1-10.04-4.677l12.353-26.516Z" clip-rule="evenodd"/><path fill="url(#bbr)" d="M103.94 212.065c6.525 1.151 12.748-3.207 13.899-9.732 1.15-6.526-3.207-12.748-9.732-13.899-6.526-1.151-12.749 3.207-13.9 9.732-1.15 6.526 3.207 12.748 9.733 13.899Z"/><path fill="url(#bbs)" d="m177.48 137.889-81.423-14.357c-6.104-1.076-11.525 3.306-11.1 8.965l1.017 33.025c.308 4.088 3.644 7.537 8.053 8.314l70.975 17.305 19.859-41.013c4.576-8.306-1.263-11.16-7.381-12.239Z"/><path fill="url(#bbt)" d="M104.647 206.146a6.028 6.028 0 1 0 2.093-11.873 6.028 6.028 0 0 0-2.093 11.873Z"/><mask id="bbv" width="102" height="69" x="84" y="123" maskUnits="userSpaceOnUse" style="mask-type:alpha"><path fill="url(#bbu)" d="m177.48 137.889-81.424-14.357c-6.103-1.076-11.525 3.306-11.1 8.965l1.017 33.025c.309 4.088 3.645 7.537 8.053 8.314l70.975 17.305 19.86-41.013c2.337-5.187-1.263-11.16-7.381-12.239Z"/></mask><g mask="url(#bbv)"><path fill="#A259FF" d="M138.084 159.666a3.461 3.461 0 0 1 4.027-2.759 3.429 3.429 0 0 1 2.747 4.011l-4.661 24.653a3.46 3.46 0 0 1-4.026 2.758 3.427 3.427 0 0 1-2.748-4.01l4.661-24.653Zm60.827-16.034a2.885 2.885 0 0 1 2.349 3.321l-.192 1.132a2.857 2.857 0 0 1-3.308 2.339L83.912 130.651a2.885 2.885 0 0 1-2.348-3.321l.192-1.132a2.857 2.857 0 0 1 3.307-2.339l113.848 19.773Zm-41.667 19.497a3.46 3.46 0 0 1 4.026-2.758 3.427 3.427 0 0 1 2.747 4.011l-4.66 24.653a3.46 3.46 0 0 1-4.027 2.758 3.427 3.427 0 0 1-2.747-4.01l4.661-24.654Zm-38.317-6.925a3.462 3.462 0 0 1 4.026-2.759 3.427 3.427 0 0 1 2.747 4.011l-4.66 24.653a3.462 3.462 0 0 1-4.027 2.759 3.429 3.429 0 0 1-2.747-4.011l4.661-24.653Zm-19.379-3.416a3.463 3.463 0 0 1 4.027-2.76 3.429 3.429 0 0 1 2.747 4.011l-4.661 24.653a3.462 3.462 0 0 1-4.026 2.76 3.429 3.429 0 0 1-2.747-4.011l4.66-24.653Z"/><path fill="url(#bbw)" d="M82.72 123.879a3.731 3.731 0 0 1 4.323-3.027l99.5 17.544a3.732 3.732 0 0 1-1.296 7.35l-99.5-17.545a3.73 3.73 0 0 1-3.026-4.322Z"/></g><defs><linearGradient id="bba" x1="55.083" x2="230.623" y1="23" y2="59.541" gradientUnits="userSpaceOnUse"><stop stop-color="#A259FF"/><stop offset="1" stop-color="#3B3B3B"/></linearGradient><linearGradient id="bbc" x1="178" x2="126.645" y1="207.333" y2="201.479" gradientUnits="userSpaceOnUse"><stop stop-color="#A259FF" stop-opacity="0"/><stop offset="1" stop-color="#FF6250"/></linearGradient><linearGradient id="bbd" x1="230.687" x2="245.417" y1="81.133" y2="92.703" gradientUnits="userSpaceOnUse"><stop stop-color="#A259FF"/><stop offset="1" stop-color="#377DF7"/></linearGradient><linearGradient id="bbe" x1="56.397" x2="55.904" y1="225.526" y2="240.182" gradientUnits="userSpaceOnUse"><stop stop-color="#A259FF"/><stop offset="1" stop-color="#377DF7"/></linearGradient><linearGradient id="bbf" x1="215.125" x2="229.765" y1="200.258" y2="199.418" gradientUnits="userSpaceOnUse"><stop stop-color="#A259FF"/><stop offset="1" stop-color="#377DF7"/></linearGradient><linearGradient id="bbj" x1="95.052" x2="150.428" y1="73.121" y2="71.415" gradientUnits="userSpaceOnUse"><stop stop-color="#A259FF"/><stop offset="1" stop-color="#3B3B3B"/></linearGradient><linearGradient id="bbk" x1="130.571" x2="126.936" y1="101.239" y2="90.464" gradientUnits="userSpaceOnUse"><stop stop-color="#A259FF"/><stop offset=".667" stop-color="#fff"/></linearGradient><linearGradient id="bbl" x1="135.634" x2="132.146" y1="129.563" y2="119.107" gradientUnits="userSpaceOnUse"><stop stop-color="#A259FF"/><stop offset=".667" stop-color="#fff"/></linearGradient><linearGradient id="bbm" x1="133.011" x2="129.523" y1="114.691" y2="104.235" gradientUnits="userSpaceOnUse"><stop stop-color="#A259FF"/><stop offset=".667" stop-color="#fff"/></linearGradient><linearGradient id="bbo" x1="124.581" x2="165.096" y1="126.942" y2="66.136" gradientUnits="userSpaceOnUse"><stop stop-color="#A259FF"/><stop offset="1" stop-color="#FF6250"/></linearGradient><linearGradient id="bbp" x1="156.685" x2="142.795" y1="196.706" y2="131.516" gradientUnits="userSpaceOnUse"><stop stop-color="#A259FF"/><stop offset=".667" stop-color="#fff"/></linearGradient><linearGradient id="bbq" x1="202.98" x2="235.041" y1="136.181" y2="173.498" gradientUnits="userSpaceOnUse"><stop stop-color="#A259FF"/><stop offset="1" stop-color="#377DF7"/></linearGradient><linearGradient id="bbr" x1="112.159" x2="84.754" y1="206.621" y2="178.621" gradientUnits="userSpaceOnUse"><stop stop-color="#A259FF"/><stop offset=".667" stop-color="#fff"/></linearGradient><linearGradient id="bbs" x1="160.325" x2="105.239" y1="174.629" y2="64.808" gradientUnits="userSpaceOnUse"><stop stop-color="#A259FF"/><stop offset=".667" stop-color="#fff"/></linearGradient><linearGradient id="bbt" x1="98.878" x2="115.982" y1="202.067" y2="205.363" gradientUnits="userSpaceOnUse"><stop stop-color="#fff"/><stop offset="1" stop-color="#BCF3FF"/></linearGradient><linearGradient id="bbu" x1="84.241" x2="185.084" y1="134.429" y2="153.455" gradientUnits="userSpaceOnUse"><stop stop-color="#AFF1FF"/><stop offset="1" stop-color="#65C8DE"/></linearGradient><linearGradient id="bbw" x1="167.698" x2="169.338" y1="140.508" y2="119.744" gradientUnits="userSpaceOnUse"><stop stop-color="#A259FF"/><stop offset=".667" stop-color="#fff"/></linearGradient><filter id="bbb" width="262" height="262" x="14" y="14" color-interpolation-filters="sRGB" filterUnits="userSpaceOnUse"><feFlood flood-opacity="0" result="BackgroundImageFix"/><feBlend in="SourceGraphic" in2="BackgroundImageFix" result="shape"/><feGaussianBlur result="effect1_foregroundBlur_1647_9906" stdDeviation="27"/></filter><filter id="bbg" width="172.12" height="63.717" x="47.593" y="194.608" color-interpolation-filters="sRGB" filterUnits="userSpaceOnUse"><feFlood flood-opacity="0" result="BackgroundImageFix"/><feBlend in="SourceGraphic" in2="BackgroundImageFix" result="shape"/><feGaussianBlur result="effect1_foregroundBlur_1647_9906" stdDeviation="10.344"/></filter><filter id="bbi" width="68.275" height="86.511" x="87.148" y="65.994" color-interpolation-filters="sRGB" filterUnits="userSpaceOnUse"><feFlood flood-opacity="0" result="BackgroundImageFix"/><feBlend in="SourceGraphic" in2="BackgroundImageFix" result="shape"/><feColorMatrix in="SourceAlpha" result="hardAlpha" values="0 0 0 0 0 0 0 0 0 0 0 0 0 0 0 0 0 0 127 0"/><feOffset dx="2.385" dy="5.564"/><feGaussianBlur stdDeviation="5.961"/><feComposite in2="hardAlpha" k2="-1" k3="1" operator="arithmetic"/><feColorMatrix values="0 0 0 0 0.104618 0 0 0 0 0.465612 0 0 0 0 0.545833 0 0 0 0.15 0"/><feBlend in2="shape" result="effect1_innerShadow_1647_9906"/></filter><filter id="bbn" width="71.466" height="39.735" x="124.581" y="82.873" color-interpolation-filters="sRGB" filterUnits="userSpaceOnUse"><feFlood flood-opacity="0" result="BackgroundImageFix"/><feBlend in="SourceGraphic" in2="BackgroundImageFix" result="shape"/><feColorMatrix in="SourceAlpha" result="hardAlpha" values="0 0 0 0 0 0 0 0 0 0 0 0 0 0 0 0 0 0 127 0"/><feOffset dx="5.626" dy="3.751"/><feGaussianBlur stdDeviation="6.095"/><feComposite in2="hardAlpha" k2="-1" k3="1" operator="arithmetic"/><feColorMatrix values="0 0 0 0 0.104618 0 0 0 0 0.465612 0 0 0 0 0.545833 0 0 0 0.09 0"/><feBlend in2="shape" result="effect1_innerShadow_1647_9906"/></filter><radialGradient id="bbh" cx="0" cy="0" r="1" gradientTransform="matrix(0 11.1712 -65.3725 0 133.653 226.466)" gradientUnits="userSpaceOnUse"><stop stop-color="#2B2B2B"/><stop offset="1" stop-color="#2B2B2B" stop-opacity="0"/></radialGradient></defs></svg><svg fill="none" viewBox="0 0 32 32" id="Storefront" xmlns="http://www.w3.org/2000/svg"><path fill="#fff" fill-rule="evenodd" d="M6 12.45a1 1 0 0 1 1 1V26h18V13.45a1 1 0 1 1 2 0V26a2 2 0 0 1-2 2H7a2 2 0 0 1-2-2V13.45a1 1 0 0 1 1-1ZM3 5a1 1 0 0 1 1-1h24a1 1 0 1 1 0 2H4a1 1 0 0 1-1-1Z" clip-rule="evenodd"/><path fill="#fff" fill-rule="evenodd" d="M4 7a1 1 0 0 1 1 1v2a3 3 0 0 0 6 0V8a1 1 0 1 1 2 0v2a5 5 0 1 1-10 0V8a1 1 0 0 1 1-1Z" clip-rule="evenodd"/><path fill="#fff" fill-rule="evenodd" d="M12 7a1 1 0 0 1 1 1v2a3 3 0 0 0 6 0V8a1 1 0 1 1 2 0v2a5 5 0 1 1-10 0V8a1 1 0 0 1 1-1Z" clip-rule="evenodd"/><path fill="#fff" fill-rule="evenodd" d="M20 7a1 1 0 0 1 1 1v2a3 3 0 0 0 6 0V8a1 1 0 1 1 2 0v2a5 5 0 1 1-10 0V8a1 1 0 0 1 1-1Z" clip-rule="evenodd"/></svg><svg fill="none" viewBox="0 0 100 100" id="Swatches" xmlns="http://www.w3.org/2000/svg"><path stroke="#fff" stroke-linecap="round" stroke-linejoin="round" stroke-width="3" d="m14.335 67.577 9.454-53.554a3.084 3.084 0 0 1 3.593-2.54l21.563 3.79a3.164 3.164 0 0 1 2.539 3.633l-9.492 53.867a14.102 14.102 0 0 1-16.055 11.445c-7.773-1.25-12.969-8.867-11.602-16.64Z"/><path stroke="#fff" stroke-linecap="round" stroke-linejoin="round" stroke-width="3" d="m46.21 48.75 28.476-10.352a3.126 3.126 0 0 1 4.024 1.875l7.5 20.547a3.125 3.125 0 0 1-1.875 3.985l-51.406 18.71"/><path stroke="#fff" stroke-linecap="round" stroke-linejoin="round" stroke-width="3" d="M85.938 63.477V81.25a3.125 3.125 0 0 1-3.126 3.125H28.126"/><path fill="#fff" d="M28.125 75a4.688 4.688 0 1 0 0-9.375 4.688 4.688 0 0 0 0 9.375Z"/></svg><svg fill="none" viewBox="0 0 32 32" id="TrendUp" xmlns="http://www.w3.org/2000/svg"><path fill="#fff" fill-rule="evenodd" d="M29.707 6.293a1 1 0 0 1 0 1.414l-12 12a1 1 0 0 1-1.414 0L12 15.414l-8.293 8.293a1 1 0 0 1-1.414-1.414l9-9a1 1 0 0 1 1.414 0L17 17.586 28.293 6.293a1 1 0 0 1 1.414 0Z" clip-rule="evenodd"/><path fill="#fff" fill-rule="evenodd" d="M20 7a1 1 0 0 1 1-1h8a1 1 0 0 1 1 1v8a1 1 0 1 1-2 0V8h-7a1 1 0 0 1-1-1Z" clip-rule="evenodd"/></svg><svg fill="none" viewBox="0 0 32 32" id="TwitterLogo" xmlns="http://www.w3.org/2000/svg"><path stroke="#858584" stroke-linecap="round" stroke-linejoin="round" stroke-width="2" d="M16 11c0-2.75 2.312-5.037 5.062-5a5 5 0 0 1 4.525 3H30l-4.038 4.038A15.988 15.988 0 0 1 10 28c-4 0-5-1.5-5-1.5S9 25 11 22c0 0-8-4-6-15 0 0 5 5 11 6v-2Z"/></svg><svg viewBox="0 0 32 32" id="User" xmlns="http://www.w3.org/2000/svg"><path fill-rule="evenodd" d="M16 5a7 7 0 1 0 0 14 7 7 0 0 0 0-14Zm-9 7a9 9 0 1 1 18 0 9 9 0 0 1-18 0Z" clip-rule="evenodd"/><path fill-rule="evenodd" d="M16 20.999A13 13 0 0 0 4.74 27.5a1 1 0 0 1-1.732-1 15 15 0 0 1 25.982 0 1 1 0 0 1-1.732 1A13 13 0 0 0 15.999 21Z" clip-rule="evenodd"/></svg><svg fill="none" viewBox="0 0 32 32" id="UserCircle" xmlns="http://www.w3.org/2000/svg"><path fill="#fff" fill-rule="evenodd" d="M16 5C9.925 5 5 9.925 5 16s4.925 11 11 11 11-4.925 11-11S22.075 5 16 5ZM3 16C3 8.82 8.82 3 16 3s13 5.82 13 13-5.82 13-13 13S3 23.18 3 16Z" clip-rule="evenodd"/><path fill="#fff" fill-rule="evenodd" d="M16 11a4 4 0 1 0 0 8 4 4 0 0 0 0-8Zm-6 4a6 6 0 1 1 12 0 6 6 0 0 1-12 0Z" clip-rule="evenodd"/><path fill="#fff" fill-rule="evenodd" d="M16 20.999a8 8 0 0 0-7.133 4.379 1 1 0 0 1-1.783-.906 10 10 0 0 1 17.833 0 1 1 0 0 1-1.783.905A8 8 0 0 0 16 21Z" clip-rule="evenodd"/></svg><svg fill="none" viewBox="0 0 100 100" id="VideoCamera" xmlns="http://www.w3.org/2000/svg"><path stroke="#fff" stroke-linecap="round" stroke-linejoin="round" stroke-width="3" d="M9.375 23.438h50a12.5 12.5 0 0 1 12.5 12.5v37.5a3.125 3.125 0 0 1-3.125 3.124h-50a12.5 12.5 0 0 1-12.5-12.5v-37.5a3.125 3.125 0 0 1 3.125-3.125v0Zm62.5 20.312 21.875-12.5v37.5l-21.875-12.5"/></svg><svg fill="none" viewBox="0 0 40 40" id="WalletConnect" xmlns="http://www.w3.org/2000/svg"><g clip-path="url(#bja)"><path d="M20 40c11.046 0 20-8.954 20-20S31.046 0 20 0 0 8.954 0 20s8.954 20 20 20Z" fill="url(#bjb)"/><path d="M12.559 15.447c4.023-3.93 10.554-3.93 14.578 0l.484.477a.491.491 0 0 1 0 .71l-1.656 1.618a.26.26 0 0 1-.367 0l-.664-.648c-2.813-2.743-7.36-2.743-10.172 0l-.711.695a.26.26 0 0 1-.367 0l-1.657-1.617a.49.49 0 0 1 0-.711l.532-.524Zm18.007 3.344 1.477 1.438a.491.491 0 0 1 0 .71l-6.648 6.493a.523.523 0 0 1-.727 0l-4.719-4.61a.132.132 0 0 0-.18 0l-4.718 4.61a.524.524 0 0 1-.727 0L7.652 20.94a.491.491 0 0 1 0-.712l1.477-1.437a.524.524 0 0 1 .726 0l4.72 4.61a.132.132 0 0 0 .179 0l4.719-4.61a.524.524 0 0 1 .726 0l4.719 4.61a.132.132 0 0 0 .18 0l4.718-4.61a.553.553 0 0 1 .75 0Z" fill="#fff"/></g><defs><radialGradient id="bjb" cx="0" cy="0" r="1" gradientUnits="userSpaceOnUse" gradientTransform="matrix(40 0 0 40 0 20)"><stop stop-color="#5D9DF6"/><stop offset="1" stop-color="#006FFF"/></radialGradient><clipPath id="bja"><path fill="#fff" d="M0 0h40v40H0z"/></clipPath></defs></svg><svg viewBox="0 0 32 32" id="YoutubeLogo" xmlns="http://www.w3.org/2000/svg"><path fill-rule="evenodd" d="M13.528 11.118a1 1 0 0 1 1.027.05l6 4a1 1 0 0 1 0 1.664l-6 4A1 1 0 0 1 13 20v-8a1 1 0 0 1 .528-.882ZM15 13.868v4.263L18.197 16 15 13.868Z" clip-rule="evenodd"/><path fill-rule="evenodd" d="M15.998 5.05h-.079l-.236.001a54.216 54.216 0 0 0-3.76.183c-2.276.193-5.174.592-7.405 1.444l-.015.006a3.012 3.012 0 0 0-1.796 2.04v.003C2.394 9.946 2 12.206 2 16c0 3.794.395 6.054.706 7.273l.001.003a3.012 3.012 0 0 0 1.796 2.04l.015.006c2.231.852 5.13 1.25 7.406 1.443a54.288 54.288 0 0 0 3.995.185h.162c.055 0 .134 0 .236-.002a54.288 54.288 0 0 0 3.76-.183c2.276-.192 5.174-.591 7.405-1.444l.015-.005a3.012 3.012 0 0 0 1.796-2.04v-.003c.312-1.22.707-3.479.707-7.273 0-3.794-.395-6.054-.706-7.273l-.001-.004a3.013 3.013 0 0 0-1.796-2.039l-.015-.006c-2.231-.852-5.13-1.251-7.406-1.443a54.216 54.216 0 0 0-3.995-.185h-.083Zm-.003 19.9h.082c.049 0 .123 0 .219-.002a52.298 52.298 0 0 0 3.612-.176c2.236-.189 4.896-.57 6.852-1.316a1.012 1.012 0 0 0 .597-.68C27.62 21.742 28 19.652 28 16c0-3.653-.38-5.743-.643-6.775a1.013 1.013 0 0 0-.597-.682c-1.956-.745-4.616-1.127-6.852-1.315a52.216 52.216 0 0 0-3.831-.178h-.154l-.219.001a52.216 52.216 0 0 0-3.612.176c-2.236.19-4.896.57-6.852 1.316a1.012 1.012 0 0 0-.597.682C4.38 10.257 4 12.347 4 16c0 3.653.38 5.743.643 6.775a1.013 1.013 0 0 0 .597.681c1.956.746 4.616 1.127 6.852 1.316a52.298 52.298 0 0 0 3.831.178h.072Z" clip-rule="evenodd"/></svg></svg>