<svg xmlns="http://www.w3.org/2000/svg" width="276" height="276" fill="none" viewBox="0 0 276 276">
  <g clip-path="url(#a)">
    <path fill="url(#b)" d="M138 253c63.513 0 115-51.487 115-115S201.513 23 138 23 23 74.487 23 138s51.487 115 115 115Z"/>
    <g filter="url(#c)">
      <path fill="url(#d)" d="M138 222c46.392 0 84-37.608 84-84s-37.608-84-84-84-84 37.608-84 84 37.608 84 84 84Z"/>
    </g>
    <path fill="#fff" fill-rule="evenodd" d="M83.096 51.58a3.484 3.484 0 1 0 0-6.967 3.484 3.484 0 0 0 0 6.967Zm0 2.613a6.097 6.097 0 1 0 0-12.193 6.097 6.097 0 0 0 0 12.193Zm-32 144.387a3.484 3.484 0 1 0 0-6.968 3.484 3.484 0 0 0 0 6.968Zm0 2.613a6.097 6.097 0 1 0 0-12.194 6.097 6.097 0 0 0 0 12.194Zm175-100.613a3.484 3.484 0 1 0 0-6.968 3.484 3.484 0 0 0 0 6.968Zm0 2.613a6.097 6.097 0 1 0 0-12.195 6.097 6.097 0 0 0 0 12.195Z" clip-rule="evenodd"/>
    <path fill="#fff" d="M43.391 52.189c.256-1.062 1.766-1.062 2.022 0l.863 3.572c.091.38.387.676.767.767l3.572.863c1.062.256 1.062 1.766 0 2.022l-3.572.863a1.04 1.04 0 0 0-.767.767l-.863 3.572c-.256 1.062-1.766 1.062-2.022 0l-.862-3.572a1.04 1.04 0 0 0-.768-.767l-3.572-.863c-1.062-.256-1.062-1.766 0-2.022l3.572-.863a1.04 1.04 0 0 0 .768-.767l.862-3.572Z"/>
    <path fill="url(#e)" d="M229.294 51.591c.28-1.163 1.935-1.163 2.216 0l.946 3.916c.1.416.425.74.84.841l3.916.946c1.164.28 1.164 1.935 0 2.216l-3.916.946c-.415.1-.74.425-.84.84l-.946 3.917c-.281 1.163-1.936 1.163-2.216 0l-.946-3.917a1.14 1.14 0 0 0-.841-.84l-3.916-.946c-1.163-.28-1.163-1.936 0-2.216l3.916-.946c.416-.1.741-.425.841-.84l.946-3.917Z"/>
    <path fill="url(#f)" d="M55.03 221.238c1.325-.212 2.382 1.088 1.904 2.341l-3.23 8.455c-.478 1.253-2.133 1.518-2.979.477l-5.707-7.024c-.846-1.04-.248-2.606 1.076-2.818l8.937-1.431Z"/>
    <path fill="url(#g)" d="M213.978 198.007c-.331-1.3.868-2.47 2.159-2.108l8.714 2.449c1.29.363 1.705 1.987.745 2.923l-6.477 6.322c-.96.937-2.573.483-2.905-.816l-2.236-8.77Z"/>
    <path fill="url(#h)" d="m182.509 153.865-77.647-28.262c-5.952-2.166-12.533.903-14.7 6.855l-18.33 50.36c-2.165 5.952.903 12.533 6.855 14.699l77.648 28.262c5.952 2.166 12.533-.903 14.699-6.855l18.33-50.36c2.166-5.952-.903-12.533-6.855-14.699Z"/>
    <path fill="url(#i)" d="m179.357 169.463 22.937-33.039c3.612-5.203 2.323-12.349-2.88-15.961l-33.039-22.938c-5.203-3.612-12.349-2.322-15.961 2.881l-22.937 33.039c-3.612 5.203-2.323 12.349 2.88 15.961l33.039 22.937c5.203 3.612 12.349 2.322 15.961-2.88Z"/>
    <path fill="url(#j)" d="M153.244 143.168a4.314 4.314 0 0 1-6.033.958 4.315 4.315 0 0 1-.958-6.033 4.315 4.315 0 0 1 6.034-.958 4.315 4.315 0 0 1 .957 6.033Z"/>
    <path fill="url(#k)" d="m166.008 125.555-2.669-1.936-12.745 17.575 2.669 1.936 12.745-17.575Z"/>
    <path fill="url(#l)" d="M168.242 146.287a4.314 4.314 0 0 1-6.033.958 4.314 4.314 0 0 1-.958-6.033 4.314 4.314 0 0 1 6.033-.958 4.314 4.314 0 0 1 .958 6.033Z"/>
    <path fill="url(#m)" d="m181.031 128.664-2.669-1.935-12.743 17.577 2.67 1.935 12.742-17.577Z"/>
    <path fill="url(#n)" d="m180.997 128.708-19.354-2.74 1.7-2.353 19.351 2.749-1.697 2.344Z"/>
    <path fill="url(#o)" d="m177.784 133.138-19.355-2.74 1.7-2.353 19.36 2.752-1.705 2.341Z"/>
    <path fill="url(#p)" d="m162.372 96.33-6.717-31.12c-1.336-6.192-7.439-10.128-13.63-8.791l-40.694 8.783c-6.19 1.337-10.127 7.439-8.79 13.63l6.717 31.12c1.336 6.191 7.438 10.127 13.63 8.791l40.693-8.784c6.192-1.336 10.127-7.438 8.791-13.63Z"/>
    <path fill="url(#q)" d="m161.842 93.132-22.811-18.316-8.819 17.387-9.29-5.356-12.844 17.879-9.634 2.076.459 2.156c1.548 7.157 8.601 11.71 15.758 10.161l37.467-8.085c7.157-1.548 11.71-8.601 10.161-15.758l-.458-2.144h.011Z"/>
    <path fill="#fff" d="M107.848 84.77a4.975 4.975 0 0 0 4.484-6.95 4.965 4.965 0 0 0-4.645-2.993 4.975 4.975 0 0 0-4.484 6.95 4.965 4.965 0 0 0 4.645 2.994Z" opacity=".9"/>
    <path fill="url(#r)" d="M169.833 217.079c-1.587 6.672-8.636 10.469-15.08 8.123L77.25 196.993a11.468 11.468 0 0 1-7.235-13.431l11.006-46.264c1.587-6.672 8.636-10.469 15.08-8.123l77.503 28.209a11.469 11.469 0 0 1 7.235 13.431l-11.006 46.264Z"/>
  </g>
  <defs>
    <linearGradient id="b" x1="55.083" x2="230.623" y1="23" y2="59.541" gradientUnits="userSpaceOnUse">
      <stop stop-color="#A259FF"/>
      <stop offset="1" stop-color="#3B3B3B"/>
    </linearGradient>
    <linearGradient id="d" x1="235" x2="172.494" y1="152" y2="259.743" gradientUnits="userSpaceOnUse">
      <stop stop-color="#A259FF" stop-opacity="0"/>
      <stop offset="1" stop-color="#FF6250"/>
    </linearGradient>
    <linearGradient id="e" x1="233.687" x2="248.417" y1="54.133" y2="65.703" gradientUnits="userSpaceOnUse">
      <stop stop-color="#A259FF"/>
      <stop offset="1" stop-color="#377DF7"/>
    </linearGradient>
    <linearGradient id="f" x1="56.396" x2="55.904" y1="225.526" y2="240.182" gradientUnits="userSpaceOnUse">
      <stop stop-color="#A259FF"/>
      <stop offset="1" stop-color="#377DF7"/>
    </linearGradient>
    <linearGradient id="g" x1="218.125" x2="232.765" y1="196.258" y2="195.418" gradientUnits="userSpaceOnUse">
      <stop stop-color="#A259FF"/>
      <stop offset="1" stop-color="#377DF7"/>
    </linearGradient>
    <linearGradient id="h" x1="159.078" x2="201.913" y1="163.434" y2="265.809" gradientUnits="userSpaceOnUse">
      <stop stop-color="#A259FF"/>
      <stop offset=".417" stop-color="#A259FF" stop-opacity="0"/>
    </linearGradient>
    <linearGradient id="i" x1="171.596" x2="98.01" y1="156.031" y2="178.644" gradientUnits="userSpaceOnUse">
      <stop stop-color="#FF7262"/>
      <stop offset=".318" stop-color="#A259FF"/>
    </linearGradient>
    <linearGradient id="j" x1="160.028" x2="168.184" y1="123.154" y2="140.333" gradientUnits="userSpaceOnUse">
      <stop stop-color="#3B3B3B"/>
      <stop offset="1" stop-color="#A259FF"/>
    </linearGradient>
    <linearGradient id="k" x1="188.84" x2="196.031" y1="93.656" y2="100.715" gradientUnits="userSpaceOnUse">
      <stop stop-color="#3B3B3B"/>
      <stop offset="1" stop-color="#A259FF"/>
    </linearGradient>
    <linearGradient id="l" x1="175.026" x2="183.181" y1="126.274" y2="143.452" gradientUnits="userSpaceOnUse">
      <stop stop-color="#3B3B3B"/>
      <stop offset="1" stop-color="#A259FF"/>
    </linearGradient>
    <linearGradient id="m" x1="203.858" x2="211.05" y1="96.76" y2="103.819" gradientUnits="userSpaceOnUse">
      <stop stop-color="#3B3B3B"/>
      <stop offset="1" stop-color="#A259FF"/>
    </linearGradient>
    <linearGradient id="n" x1="185.53" x2="185.236" y1="114.266" y2="134.474" gradientUnits="userSpaceOnUse">
      <stop stop-color="#3B3B3B"/>
      <stop offset="1" stop-color="#A259FF"/>
    </linearGradient>
    <linearGradient id="o" x1="182.324" x2="182.028" y1="118.699" y2="138.907" gradientUnits="userSpaceOnUse">
      <stop stop-color="#3B3B3B"/>
      <stop offset="1" stop-color="#A259FF"/>
    </linearGradient>
    <linearGradient id="p" x1="136.569" x2="149.555" y1="64.894" y2="107.339" gradientUnits="userSpaceOnUse">
      <stop stop-color="#FF7262"/>
      <stop offset="1" stop-color="#A259FF"/>
    </linearGradient>
    <linearGradient id="q" x1="127.394" x2="113.288" y1="136.001" y2="83.897" gradientUnits="userSpaceOnUse">
      <stop stop-color="#A259FF"/>
      <stop offset="1" stop-color="#fff"/>
    </linearGradient>
    <linearGradient id="r" x1="151.265" x2="97.323" y1="202.805" y2="65.561" gradientUnits="userSpaceOnUse">
      <stop stop-color="#A259FF"/>
      <stop offset=".667" stop-color="#fff"/>
    </linearGradient>
    <clipPath id="a">
      <path fill="#fff" d="M0 0h276v276H0z"/>
    </clipPath>
    <filter id="c" width="276" height="276" x="0" y="0" color-interpolation-filters="sRGB" filterUnits="userSpaceOnUse">
      <feFlood flood-opacity="0" result="BackgroundImageFix"/>
      <feBlend in="SourceGraphic" in2="BackgroundImageFix" result="shape"/>
      <feGaussianBlur result="effect1_foregroundBlur_1617_11612" stdDeviation="27"/>
    </filter>
  </defs>
</svg>
