<svg xmlns="http://www.w3.org/2000/svg" width="276" height="276" fill="none" viewBox="0 0 276 276">
  <g clip-path="url(#a)">
    <path fill="url(#b)" d="M138 253c63.513 0 115-51.487 115-115S201.513 23 138 23 23 74.487 23 138s51.487 115 115 115Z"/>
    <g filter="url(#c)">
      <path fill="url(#d)" d="M138 222c46.392 0 84-37.608 84-84s-37.608-84-84-84-84 37.608-84 84 37.608 84 84 84Z"/>
    </g>
    <path fill="#fff" fill-rule="evenodd" d="M130.096 44.58a3.484 3.484 0 1 0 0-6.968 3.484 3.484 0 0 0 0 6.968Zm0 2.613a6.097 6.097 0 1 0 0-12.194 6.097 6.097 0 0 0 0 12.194Zm-83 157.387a3.484 3.484 0 1 0 0-6.968 3.484 3.484 0 0 0 0 6.968Zm0 2.613a6.097 6.097 0 1 0 0-12.194 6.097 6.097 0 0 0 0 12.194Zm191.002-10.613a3.484 3.484 0 1 0 0-6.968 3.484 3.484 0 0 0 0 6.968Zm0 2.613a6.097 6.097 0 1 0 0-12.195 6.097 6.097 0 0 0 0 12.195Z" clip-rule="evenodd"/>
    <path fill="#fff" d="M73.391 60.189c.256-1.062 1.766-1.062 2.022 0l.863 3.572c.091.38.388.676.767.767l3.572.863c1.062.256 1.062 1.766 0 2.022l-3.572.862a1.04 1.04 0 0 0-.767.768l-.863 3.572c-.256 1.062-1.766 1.062-2.022 0l-.862-3.572a1.04 1.04 0 0 0-.767-.768l-3.573-.862c-1.062-.256-1.062-1.766 0-2.022l3.573-.863a1.04 1.04 0 0 0 .767-.767l.862-3.572Z"/>
    <path fill="url(#e)" d="M221.296 216.591c.281-1.163 1.936-1.163 2.217 0l.945 3.916c.1.416.425.741.841.841l3.916.946c1.163.28 1.163 1.935 0 2.216l-3.916.946a1.14 1.14 0 0 0-.841.84l-.945 3.916c-.281 1.164-1.936 1.164-2.217 0l-.946-3.916a1.14 1.14 0 0 0-.84-.84l-3.916-.946c-1.164-.281-1.164-1.936 0-2.216l3.916-.946c.415-.1.74-.425.84-.841l.946-3.916Z"/>
    <path fill="url(#f)" d="M57.03 231.238c1.325-.212 2.382 1.088 1.904 2.341l-3.23 8.455c-.478 1.253-2.133 1.518-2.979.477l-5.707-7.024c-.846-1.04-.248-2.606 1.076-2.818l8.937-1.431Z"/>
    <path fill="url(#g)" d="M226.98 69.006c-.331-1.3.868-2.47 2.159-2.107l8.714 2.448c1.29.363 1.705 1.987.745 2.924l-6.477 6.322c-.96.936-2.573.483-2.905-.817l-2.236-8.77Z"/>
    <path fill="url(#h)" d="m197.967 129.711-18.893 3.673c-5.376 1.044-8.886 6.249-7.841 11.624 1.045 5.375 6.249 8.885 11.624 7.841l18.894-3.673c5.375-1.045 8.885-6.249 7.84-11.624-1.044-5.375-6.249-8.886-11.624-7.841Z"/>
    <path fill="#EBEBEB" d="M205.392 139.403a4.434 4.434 0 1 0-8.861-.345 4.434 4.434 0 0 0 8.861.345Z"/>
    <path fill="#DBDBDB" d="M201.421 141.615a2.428 2.428 0 1 0-.927-4.766 2.428 2.428 0 0 0 .927 4.766Z"/>
    <path fill="url(#i)" d="m168.011 99.85-96.47 18.752c-5.42 1.053-8.961 6.303-7.908 11.724l13.035 67.054c1.053 5.422 6.302 8.962 11.724 7.908l96.469-18.751c5.422-1.054 8.962-6.303 7.909-11.725l-13.035-67.054c-1.053-5.421-6.302-8.962-11.724-7.908Z"/>
    <path fill="url(#j)" d="m166.248 69.359 19.706 50.936a5.529 5.529 0 0 1-3.157 7.15l-80.783 31.253c-2.842 1.102-6.044-.316-7.148-3.163l-19.705-50.936a5.141 5.141 0 0 1 2.942-6.65l81.492-31.526a5.141 5.141 0 0 1 6.651 2.942l.002-.006Z"/>
    <path fill="url(#k)" d="M170.043 118.196a5.083 5.083 0 1 1-9.483 3.666 5.083 5.083 0 0 1 9.483-3.666Z"/>
    <path fill="url(#l)" d="M175.879 115.934a5.084 5.084 0 0 1-9.482 3.667 5.084 5.084 0 0 1 9.482-3.667Z"/>
    <path fill="url(#m)" d="m99.508 99.72-13.235 5.12a2.072 2.072 0 0 0-1.185 2.68l3.078 7.954a2.072 2.072 0 0 0 2.68 1.185l13.234-5.121a2.07 2.07 0 0 0 1.185-2.679l-3.077-7.954a2.072 2.072 0 0 0-2.68-1.185Z"/>
    <path fill="#fff" d="m159.749 83.862-7.739 2.992a3.48 3.48 0 0 1-4.494-1.99 3.48 3.48 0 0 1 1.99-4.493l7.738-2.992a3.476 3.476 0 0 1 2.505 6.483Z"/>
    <path fill="#F8F8F8" d="m92.45 128.416-.54.683s-.045.049-.077.061a.187.187 0 0 1-.18-.026c-.085-.073-.097-.185-.025-.26l.734-.952c.062-.072.188-.088.26-.026a.236.236 0 0 1 .072.12l1.763 4.554a.18.18 0 0 1-.104.236.186.186 0 0 1-.236-.105l-1.657-4.289-.01.004Zm3.166 3.55 1.505-2.988a1.39 1.39 0 0 0 .058-1.116 1.364 1.364 0 0 0-.663-.723 1.345 1.345 0 0 0-1.103-.052 1.38 1.38 0 0 0-.74.66l-.155.313c-.043.095-.16.135-.241.087-.096-.043-.136-.159-.088-.241l.153-.318c.207-.396.548-.691.94-.841a1.683 1.683 0 0 1 1.396.071c.41.202.697.536.844.918.167.438.162.947-.067 1.41l-1.289 2.561 2.349-.902c.09-.04.197.004.236.105a.186.186 0 0 1-.106.236l-2.764 1.071-.027.011c-.05.02-.107.025-.149-.001-.094-.054-.135-.16-.092-.255l.003-.006Zm5.503-7.121-.772 1.813a1.796 1.796 0 0 1 1.025.125c.452.201.784.57.95 1.003.166.433.171.928-.035 1.382a1.834 1.834 0 0 1-1 .96 1.78 1.78 0 0 1-1.372-.039.183.183 0 0 1-.096-.248c.036-.099.147-.141.249-.096a1.44 1.44 0 0 0 1.882-.727c.161-.364.155-.752.024-1.093a1.38 1.38 0 0 0-.75-.784 1.4 1.4 0 0 0-1.088-.027.206.206 0 0 1-.17-.014l-.009.004a.186.186 0 0 1-.097-.254l.742-1.743-1.902.73a.18.18 0 0 1-.245-.101.189.189 0 0 1 .106-.247l2.321-.891a.182.182 0 0 1 .245.102.161.161 0 0 1 .007.087c0 .026-.007.05-.016.069l.001-.011Zm5.566 2.016L104 127.902l-.023.009c-.037.014-.082.021-.12.004a.173.173 0 0 1-.115-.231l1.489-4.682.005-.013a.174.174 0 0 1 .231-.115c.036.013.063.04.087.062.005.014.018.019.02.024l.009.023 1.315 3.4.332-.128c.101-.038.21.01.245.102a.186.186 0 0 1-.11.237l-.331.128.327.852a.185.185 0 0 1-.346.132l-.327-.852-.003.007Zm-.13-.341-1.125-2.902-1.22 3.813 2.348-.902-.003-.009Zm6.549-1.533a.18.18 0 0 1-.095-.249.19.19 0 0 1 .253-.097c.36.153.746.153 1.086.022.341-.131.623-.387.785-.75.162-.364.157-.748.026-1.088a1.418 1.418 0 0 0-.749-.796 1.44 1.44 0 0 0-1.086-.022 1.416 1.416 0 0 0-.794.754.188.188 0 0 1-.249.096.097.097 0 0 1-.062-.04l-.004-.009s-.014-.01-.018-.019c-.014-.011-.023-.034-.03-.052-.004-.009-.005-.025-.01-.039l-.534-2.093a.163.163 0 0 1 .02-.155.17.17 0 0 1 .099-.086l2.312-.887a.181.181 0 0 1 .245.101c.04.106-.01.21-.106.247l-2.165.831.394 1.55c.195-.25.455-.439.755-.554a1.754 1.754 0 0 1 1.375.032c.462.198.781.561.951 1.003.162.424.18.925-.031 1.381a1.833 1.833 0 0 1-1.003.95 1.801 1.801 0 0 1-1.38-.03l.015-.001Zm3.414-5.214c.11-.734.509-1.4 1.321-1.749.089-.044.197.004.242.093a.196.196 0 0 1-.1.249c-.685.295-.984.822-1.1 1.458-.059.355-.035.748.032 1.129a1.754 1.754 0 0 1 3.286-.03 1.758 1.758 0 0 1-3.259 1.325 2.785 2.785 0 0 1-.139-.322c-.248-.66-.392-1.435-.278-2.155l-.005.002Zm.757 2.314c.014.037.034.061.049.087.009.023.014.037.01.054a1.392 1.392 0 0 0 2.521-1.168 1.392 1.392 0 0 0-1.803-.787 1.388 1.388 0 0 0-.792 1.789l.01.027.005-.002Zm5.269-.462.15-5.061-2.4.921a.175.175 0 0 1-.232-.096.186.186 0 0 1 .105-.236l2.625-1.008a.148.148 0 0 1 .106-.04c.05.007.103.034.133.07.018.02.028.032.035.05a.167.167 0 0 1 .007.103l-.155 5.306a.187.187 0 0 1-.116.166.135.135 0 0 1-.075.013.202.202 0 0 1-.188-.187l.005-.001Zm3.071-6.616a1.11 1.11 0 0 1 1.431.629c.132.346.077.71-.102 1.001a1.726 1.726 0 1 1-1.228.477 1.116 1.116 0 0 1-.734-.675 1.099 1.099 0 0 1 .631-1.426l.002-.006Zm1.789 4.618a1.354 1.354 0 0 0 .779-1.757 1.357 1.357 0 0 0-1.758-.778 1.362 1.362 0 0 0-.778 1.757 1.356 1.356 0 0 0 1.757.778Zm-1.119-2.888a.764.764 0 0 0 .425-.972.74.74 0 0 0-.959-.419.735.735 0 0 0-.421.954.75.75 0 0 0 .959.435l-.004.002Zm8.145-5.14a1.747 1.747 0 0 1 2.188.814c.014.011.018.02.028.032.06.13.12.271.176.418.253.659.396 1.444.291 2.161-.115.72-.518 1.403-1.321 1.748l-.009.004c-.101.039-.206 0-.242-.092a.193.193 0 0 1 .1-.25c.674-.296.994-.825 1.1-1.458a3.281 3.281 0 0 0-.032-1.129 1.742 1.742 0 0 1-1.024 1.022 1.752 1.752 0 1 1-1.264-3.266l.009-.004Zm1.927 1.126a1.38 1.38 0 0 0-1.795-.78 1.385 1.385 0 0 0-.796 1.78 1.38 1.38 0 0 0 1.789.792 1.37 1.37 0 0 0 .797-1.791l.005-.001Zm1.939.233c-.256-.667-.324-1.339-.198-1.921.134-.558.45-1.028.952-1.221.502-.193 1.056-.057 1.528.264.476.346.894.883 1.155 1.549.256.667.31 1.344.185 1.915-.132.563-.447 1.038-.949 1.231-.502.192-1.056.056-1.531-.274-.477-.334-.887-.879-1.144-1.547l.002.004Zm.345-.132c.234.608.61 1.092 1.015 1.375.402.279.826.365 1.181.228.354-.136.601-.484.719-.962.106-.48.066-1.093-.167-1.701-.233-.608-.619-1.089-1.019-1.374-.412-.29-.826-.364-1.181-.228-.355.136-.616.474-.719.963-.106.479-.057 1.089.178 1.702l-.007-.003Zm4.618-4.063-.54.684s-.045.048-.077.061a.189.189 0 0 1-.18-.026c-.086-.073-.097-.185-.025-.26l.733-.953c.063-.071.188-.088.26-.025a.22.22 0 0 1 .072.12l1.764 4.553a.18.18 0 0 1-.105.236.185.185 0 0 1-.236-.105l-1.656-4.288-.01.003Zm3.164 3.547 1.505-2.987c.178-.364.194-.762.058-1.116a1.36 1.36 0 0 0-.663-.723 1.34 1.34 0 0 0-1.103-.052c-.313.12-.575.347-.741.659l-.154.313c-.043.096-.16.135-.241.087-.096-.042-.136-.159-.088-.241l.153-.317c.207-.397.548-.692.938-.847a1.687 1.687 0 0 1 1.396.072c.41.202.697.536.844.918.168.437.162.947-.067 1.41l-1.289 2.561 2.349-.902a.18.18 0 0 1 .236.105.186.186 0 0 1-.105.236l-2.764 1.071-.028.011c-.051.019-.107.025-.148-.001-.095-.054-.136-.16-.093-.255l.005-.002Zm9.75-8.764-.773 1.814a1.785 1.785 0 0 1 1.976 1.127c.166.433.171.928-.035 1.382a1.832 1.832 0 0 1-.996.958c-.423.163-.923.17-1.377-.036a.183.183 0 0 1-.095-.249.183.183 0 0 1 .248-.096 1.442 1.442 0 0 0 1.882-.727c.162-.363.155-.752.025-1.093a1.385 1.385 0 0 0-.751-.784 1.395 1.395 0 0 0-1.088-.026.205.205 0 0 1-.169-.015l-.009.004a.185.185 0 0 1-.097-.254l.741-1.742-1.902.73a.182.182 0 0 1-.245-.102.19.19 0 0 1 .106-.247l2.321-.891c.1-.043.208.005.245.102a.162.162 0 0 1 .007.087c0 .027-.007.05-.015.069l.001-.011Zm5.566 2.018-2.689 1.033-.008.008-.013.005c-.037.014-.08.026-.12.004a.173.173 0 0 1-.115-.231l1.489-4.682.005-.013c.035-.103.128-.149.231-.114.036.012.063.039.087.061a.042.042 0 0 0 .02.024l.009.023 1.315 3.4.332-.127a.187.187 0 0 1 .245.101.187.187 0 0 1-.11.238l-.331.127.327.852a.186.186 0 0 1-.11.237.185.185 0 0 1-.236-.105l-.327-.852-.001.011Zm-.131-.34-1.124-2.903-1.221 3.813 2.349-.901-.004-.009Zm2.303.107a.18.18 0 0 1-.095-.249.193.193 0 0 1 .253-.097c.36.152.745.153 1.086.023.341-.131.623-.387.785-.751.162-.363.157-.748.026-1.089a1.423 1.423 0 0 0-.749-.795 1.412 1.412 0 0 0-1.086-.022 1.418 1.418 0 0 0-.794.755c-.043.096-.156.143-.249.094a.095.095 0 0 1-.062-.038l-.004-.01s-.014-.009-.018-.019c-.015-.01-.023-.034-.03-.052-.004-.01-.005-.025-.01-.039l-.534-2.093a.165.165 0 0 1 .02-.156.17.17 0 0 1 .099-.085l2.311-.887c.1-.044.208.005.245.101a.184.184 0 0 1-.106.246l-2.164.831.394 1.551c.197-.244.455-.44.755-.554a1.75 1.75 0 0 1 1.375.032c.462.198.781.561.951 1.003.162.424.18.925-.031 1.381a1.833 1.833 0 0 1-1.003.95 1.801 1.801 0 0 1-1.38-.03l.015-.001Zm3.414-5.214c.11-.734.507-1.404 1.321-1.749.089-.044.197.004.241.093a.195.195 0 0 1-.099.25c-.683.298-.985.821-1.1 1.457-.059.355-.035.747.032 1.129a1.756 1.756 0 1 1 2.277 2.243 1.757 1.757 0 0 1-2.25-.949c-.055-.1-.095-.206-.139-.321-.249-.661-.393-1.435-.278-2.155l-.005.002Zm.757 2.314c.014.037.034.061.049.087.009.023.014.037.01.054a1.393 1.393 0 0 0 2.521-1.168 1.393 1.393 0 0 0-1.803-.788 1.39 1.39 0 0 0-.793 1.789l.011.028.005-.002Z"/>
    <path fill="url(#n)" d="m141.352 124.404-43.257 16.735.822 2.125 43.257-16.735-.822-2.125Z"/>
    <path fill="url(#o)" d="m130.547 134.016-30.625 11.848.822 2.126 30.625-11.848-.822-2.126Z"/>
    <path fill="#3B3B3B" d="m142.226 83.188-19.446 7.523a1.14 1.14 0 1 0 .822 2.126l19.446-7.523a1.14 1.14 0 0 0-.822-2.126Z"/>
    <path fill="url(#p)" d="M177.861 137.486 76.508 157.188l7.887 40.576 101.354-19.701-7.888-40.577Z"/>
    <path fill="#000" d="M177.861 137.486 76.508 157.188l7.887 40.576 101.354-19.701-7.888-40.577Z" opacity=".2"/>
    <path fill="url(#q)" d="m187.223 202.348-99.857 5.053a10 10 0 0 1-10.321-8.079l-14.375-73.95c-.339-1.745 1.454-3.132 3.058-2.365a11.63 11.63 0 0 0 5.991 1.092l89.704-7.673a9.999 9.999 0 0 1 10.669 8.055l15.135 77.861c0 .002-.002.005-.004.006Z"/>
    <path fill="#EBEBEB" d="M166.013 165.928c2.324-.451 3.791-2.964 3.276-5.611-.514-2.647-2.815-4.427-5.139-3.976-2.324.452-3.791 2.964-3.276 5.612.515 2.647 2.816 4.427 5.139 3.975Z"/>
    <path fill="#DBDBDB" d="M167.038 160.757c.239 1.23-.443 2.398-1.523 2.607-1.08.21-2.15-.617-2.389-1.847-.239-1.229.443-2.397 1.523-2.607 1.08-.21 2.15.617 2.389 1.847Z"/>
  </g>
  <defs>
    <linearGradient id="b" x1="55.083" x2="230.623" y1="23" y2="59.541" gradientUnits="userSpaceOnUse">
      <stop stop-color="#A259FF"/>
      <stop offset="1" stop-color="#3B3B3B"/>
    </linearGradient>
    <linearGradient id="d" x1="81.2" x2="243.658" y1="54" y2="85.331" gradientUnits="userSpaceOnUse">
      <stop stop-color="#A259FF" stop-opacity="0"/>
      <stop offset="1" stop-color="#FF6250"/>
    </linearGradient>
    <linearGradient id="e" x1="225.689" x2="240.419" y1="219.134" y2="230.703" gradientUnits="userSpaceOnUse">
      <stop stop-color="#A259FF"/>
      <stop offset="1" stop-color="#377DF7"/>
    </linearGradient>
    <linearGradient id="f" x1="58.396" x2="57.904" y1="235.526" y2="250.182" gradientUnits="userSpaceOnUse">
      <stop stop-color="#A259FF"/>
      <stop offset="1" stop-color="#377DF7"/>
    </linearGradient>
    <linearGradient id="g" x1="231.127" x2="245.767" y1="67.257" y2="66.418" gradientUnits="userSpaceOnUse">
      <stop stop-color="#A259FF"/>
      <stop offset="1" stop-color="#377DF7"/>
    </linearGradient>
    <linearGradient id="h" x1="175.551" x2="211.652" y1="134.068" y2="140.31" gradientUnits="userSpaceOnUse">
      <stop stop-color="#A259FF"/>
      <stop offset="1" stop-color="#3B3B3B"/>
    </linearGradient>
    <linearGradient id="i" x1="151.798" x2="112.799" y1="224.896" y2="148.311" gradientUnits="userSpaceOnUse">
      <stop stop-color="#A259FF"/>
      <stop offset="1" stop-color="#3B3B3B"/>
    </linearGradient>
    <linearGradient id="j" x1="88.016" x2="181.937" y1="93.9" y2="85.787" gradientUnits="userSpaceOnUse">
      <stop stop-color="#A259FF"/>
      <stop offset="1" stop-color="#FF6250"/>
    </linearGradient>
    <linearGradient id="k" x1="160.271" x2="170.129" y1="116.516" y2="114.763" gradientUnits="userSpaceOnUse">
      <stop stop-color="#A259FF"/>
      <stop offset="1" stop-color="#FF6250"/>
    </linearGradient>
    <linearGradient id="l" x1="166.108" x2="175.965" y1="114.254" y2="112.501" gradientUnits="userSpaceOnUse">
      <stop stop-color="#A259FF"/>
      <stop offset="1" stop-color="#3B3B3B"/>
    </linearGradient>
    <linearGradient id="m" x1="87.109" x2="104.739" y1="104.517" y2="102.801" gradientUnits="userSpaceOnUse">
      <stop stop-color="#A259FF"/>
      <stop offset="1" stop-color="#3B3B3B"/>
    </linearGradient>
    <linearGradient id="n" x1="105.098" x2="111.758" y1="138.429" y2="147.786" gradientUnits="userSpaceOnUse">
      <stop stop-color="#A259FF"/>
      <stop offset="1" stop-color="#FF6250"/>
    </linearGradient>
    <linearGradient id="o" x1="104.88" x2="112.188" y1="143.946" y2="152.37" gradientUnits="userSpaceOnUse">
      <stop stop-color="#A259FF"/>
      <stop offset="1" stop-color="#FF6250"/>
    </linearGradient>
    <linearGradient id="p" x1="92.918" x2="183.151" y1="153.998" y2="177.706" gradientUnits="userSpaceOnUse">
      <stop stop-color="#A259FF"/>
      <stop offset="1" stop-color="#3B3B3B"/>
    </linearGradient>
    <linearGradient id="q" x1="160.295" x2="3.981" y1="177.717" y2="102.697" gradientUnits="userSpaceOnUse">
      <stop stop-color="#A259FF"/>
      <stop offset=".667" stop-color="#fff"/>
    </linearGradient>
    <clipPath id="a">
      <path fill="#fff" d="M0 0h276v276H0z"/>
    </clipPath>
    <filter id="c" width="276" height="276" x="0" y="0" color-interpolation-filters="sRGB" filterUnits="userSpaceOnUse">
      <feFlood flood-opacity="0" result="BackgroundImageFix"/>
      <feBlend in="SourceGraphic" in2="BackgroundImageFix" result="shape"/>
      <feGaussianBlur result="effect1_foregroundBlur_1617_11657" stdDeviation="27"/>
    </filter>
  </defs>
</svg>
